<svg xmlns="http://www.w3.org/2000/svg" viewBox="0 0 30 30"><defs><style>.cls-1{fill:none;}.cls-2{fill:#1685a9;}.cls-3{fill:#fff;}</style></defs><g id="圖層_2" data-name="圖層 2"><g id="圖層_2-2" data-name="圖層 2"><rect class="cls-1" width="30" height="30"/><circle class="cls-2" cx="15" cy="15" r="15"/><path class="cls-3" d="M15,19.35A4.35,4.35,0,1,1,19.35,15,4.35,4.35,0,0,1,15,19.35ZM15,12a3,3,0,1,0,3,3A3,3,0,0,0,15,12Z"/><circle class="cls-3" cx="19.64" cy="10.46" r="0.99"/><path class="cls-3" d="M18.59,23.33H11.41a4.75,4.75,0,0,1-4.74-4.74V11.41a4.75,4.75,0,0,1,4.74-4.74h7.18a4.75,4.75,0,0,1,4.74,4.74v7.18A4.75,4.75,0,0,1,18.59,23.33ZM11.41,8.06a3.35,3.35,0,0,0-3.35,3.35v7.18a3.35,3.35,0,0,0,3.35,3.35h7.18a3.35,3.35,0,0,0,3.35-3.35V11.41a3.35,3.35,0,0,0-3.35-3.35Z"/></g></g></svg>