<svg xmlns="http://www.w3.org/2000/svg" viewBox="0 0 30 30"><defs><style>.cls-1{fill:none;}.cls-2{fill:#1685a9;}.cls-3{fill:#fff;}</style></defs><g id="圖層_2" data-name="圖層 2"><g id="圖層_2-2" data-name="圖層 2"><rect class="cls-1" width="30" height="30"/><circle class="cls-2" cx="15" cy="15" r="15"/><path class="cls-3" d="M15.1,6.35c-5.15,0-9.33,3.31-9.33,7.4,0,3.72,3.46,6.8,8,7.33a.85.85,0,0,1,.76.84,5,5,0,0,1-.15,1.43.37.37,0,0,0,.51.44,22.79,22.79,0,0,0,7.56-5.44c.2-.2.57-.63.57-.63a6.32,6.32,0,0,0,1.45-4C24.43,9.66,20.25,6.35,15.1,6.35ZM11.76,16c0,.07,0,.1-.09.1H8.84c-.06,0-.09,0-.09-.1v-4.2a.08.08,0,0,1,.09-.09h.89a.08.08,0,0,1,.09.09v3.24h1.85a.08.08,0,0,1,.09.09Zm1.64,0c0,.07,0,.1-.09.1h-.89c-.06,0-.09,0-.09-.1v-4.2a.08.08,0,0,1,.09-.09h.89a.08.08,0,0,1,.09.09Zm4.48,0c0,.07,0,.1-.09.1h-.92a.11.11,0,0,1-.11-.07l-1.51-2.62V16c0,.07,0,.1-.1.1h-.84c-.06,0-.09,0-.09-.1v-4.2a.08.08,0,0,1,.09-.09h.93a.14.14,0,0,1,.11.06l1.5,2.61V11.82c0-.06,0-.09.1-.09h.84a.08.08,0,0,1,.09.09Zm3.85,0a.09.09,0,0,1-.1.1H18.79c-.06,0-.09,0-.09-.1v-4.2a.08.08,0,0,1,.09-.09h2.77c.07,0,.1,0,.1.09v.77c0,.07,0,.1-.1.1h-1.8v.72h1.59a.08.08,0,0,1,.09.09v.75a.08.08,0,0,1-.09.09H19.76v.81h1.87a.09.09,0,0,1,.1.1Z"/></g></g></svg>