<svg xmlns="http://www.w3.org/2000/svg" viewBox="0 0 25 25"><defs><style>.cls-1{fill:none;}.cls-2{fill:#333;}</style></defs><g id="圖層_2" data-name="圖層 2"><g id="圖層_2-2" data-name="圖層 2"><rect class="cls-1" width="25" height="25"/><path class="cls-2" d="M21,7.84v9.32a1.35,1.35,0,0,1-1.37,1.34H5.37A1.36,1.36,0,0,1,4,17.16V7.84a1.32,1.32,0,0,1,.13-.56L9.88,12.9,5.23,16.74a.56.56,0,0,0-.07.79.58.58,0,0,0,.8.06l.51-.42,4.22-3.48,1.41,1.38a.58.58,0,0,0,.8,0l1.42-1.38,4.21,3.48.51.42a.58.58,0,0,0,.37.13.56.56,0,0,0,.37-1L15.12,12.9l5.75-5.62A1.32,1.32,0,0,1,21,7.84Z"/><path class="cls-2" d="M20,6.55h0l-5.75,5.61L12.5,13.89,11.56,13l-.4-.39-.41-.4L5,6.56H5a1.58,1.58,0,0,1,.38,0H19.63A1.58,1.58,0,0,1,20,6.55Z"/></g></g></svg>