<svg xmlns="http://www.w3.org/2000/svg" viewBox="0 0 30 30"><defs><style>.cls-1{fill:none;}.cls-2{fill:#1685a9;}.cls-3{fill:#fff;}</style></defs><g id="圖層_2" data-name="圖層 2"><g id="圖層_2-2" data-name="圖層 2"><rect class="cls-1" width="30" height="30"/><circle class="cls-2" cx="15" cy="15" r="15"/><path class="cls-3" d="M22.78,19.69a3.37,3.37,0,1,1-6.74,0c0-.13,0-.25,0-.38l-4-1.92a3.38,3.38,0,1,1,0-4.74l4.06-2a2.56,2.56,0,0,1,0-.39,3.38,3.38,0,1,1,1,2.37l-4,2c0,.12,0,.25,0,.38s0,.26,0,.38l4,1.92a3.37,3.37,0,0,1,5.77,2.37Z"/></g></g></svg>