<svg xmlns="http://www.w3.org/2000/svg" viewBox="0 0 25 25"><defs><style>.cls-1{fill:none;}.cls-2{fill:#333;}</style></defs><g id="圖層_2" data-name="圖層 2"><g id="圖層_2-2" data-name="圖層 2"><rect class="cls-1" width="25" height="25"/><path class="cls-2" d="M17.14,2.5H7.86A1.37,1.37,0,0,0,6.5,3.88V21.12A1.37,1.37,0,0,0,7.86,22.5h9.28a1.37,1.37,0,0,0,1.36-1.38V3.88A1.37,1.37,0,0,0,17.14,2.5ZM12.5,21.67a.54.54,0,0,1-.54-.54.54.54,0,1,1,1.08,0A.54.54,0,0,1,12.5,21.67Zm4.62-2.52a.67.67,0,0,1-.67.68H8.55a.67.67,0,0,1-.67-.68V5a.67.67,0,0,1,.67-.68h7.9a.67.67,0,0,1,.67.68Z"/></g></g></svg>