<svg xmlns="http://www.w3.org/2000/svg" viewBox="0 0 15 15"><defs><style>.cls-1{fill:none;}.cls-2{fill:#fff;}</style></defs><g id="圖層_2" data-name="圖層 2"><g id="圖層_2-2" data-name="圖層 2"><rect class="cls-1" width="15" height="15"/><path class="cls-2" d="M8.67.88a6.72,6.72,0,1,0,5.45,7.79A6.72,6.72,0,0,0,8.67.88ZM12.09,11l-1.65-.29a11.62,11.62,0,0,0,.65-2.09l2,.35A5.82,5.82,0,0,1,12.09,11ZM1.76,7l2,.35a12.66,12.66,0,0,0-.1,2.19L2,9.22A5.64,5.64,0,0,1,1.76,7ZM2.91,4l1.65.29a11.62,11.62,0,0,0-.65,2.09L1.92,6A5.82,5.82,0,0,1,2.91,4ZM8.59,4,9,2a3.47,3.47,0,0,1,1.29,2.34Zm1.8,1.28a10.88,10.88,0,0,1-.07,2.19l-2.27-.4L8.43,5ZM8,1.83l-.36,2L6,3.58A3.41,3.41,0,0,1,8,1.83Zm-.53,3L7.11,7l-2.26-.4a10.45,10.45,0,0,1,.68-2.09ZM4.68,7.49,7,7.89,6.57,10l-2-.34A10.88,10.88,0,0,1,4.68,7.49ZM6.41,11,6,13a3.47,3.47,0,0,1-1.29-2.34ZM7,13.17l.36-2L9,11.42A3.41,3.41,0,0,1,7,13.17Zm.53-3,.38-2.14,2.26.4a10.45,10.45,0,0,1-.68,2.09Zm3.75-2.51a12.66,12.66,0,0,0,.1-2.19L13,5.78A5.64,5.64,0,0,1,13.24,8Zm1.3-2.94-1.31-.23a6.59,6.59,0,0,0-.52-1.79A5.72,5.72,0,0,1,12.56,4.74ZM6.1,1.91A6.78,6.78,0,0,0,5,3.4L3.69,3.17A5.76,5.76,0,0,1,6.1,1.91ZM2.44,10.26l1.31.23a6.59,6.59,0,0,0,.52,1.79A5.72,5.72,0,0,1,2.44,10.26ZM8.9,13.09A6.78,6.78,0,0,0,10,11.6l1.31.23A5.76,5.76,0,0,1,8.9,13.09Z"/></g></g></svg>