<svg id="圖層_1" data-name="圖層 1" xmlns="http://www.w3.org/2000/svg" xmlns:xlink="http://www.w3.org/1999/xlink" viewBox="0 0 800 150"><defs><style>.cls-1{fill:#fff;}.cls-2{fill:url(#未命名漸層_157);}</style><radialGradient id="未命名漸層_157" cx="399.42" cy="71.61" r="163.57" gradientUnits="userSpaceOnUse"><stop offset="0" stop-color="#b21848"/><stop offset="0.03" stop-color="#ae1847"/><stop offset="0.48" stop-color="#721434"/><stop offset="0.81" stop-color="#4c1128"/><stop offset="0.98" stop-color="#3e1023"/></radialGradient></defs><rect class="cls-1" y="15" width="800" height="120" rx="59.48"/><path class="cls-2" d="M390.69,80.4q-1.08,8.49-6,13T372,97.83q-11.49,0-17.28-7.86Q349.76,83.4,349.76,73q0-10.14,5.07-16.93,6-8,17.14-8,7.86,0,12.5,4,5.22,4.44,5.43,13H379.83q-.65-4.43-2.43-6.21A7.94,7.94,0,0,0,372,57.25a10,10,0,0,0-9,4.86q-2.64,4.22-2.64,10.93T363,83.75a9.93,9.93,0,0,0,9,4.79q6.79,0,8.5-8.14ZM433.91,80a17.58,17.58,0,0,1-4.42,12.21q-4.94,5.58-13.22,5.58t-13.14-5.58A17.72,17.72,0,0,1,398.77,80a18.21,18.21,0,0,1,4.36-12.29q4.92-5.64,13.28-5.64t13.15,5.64A18.26,18.26,0,0,1,433.91,80ZM423.7,80a9.62,9.62,0,0,0-2-6.21,6.46,6.46,0,0,0-5.43-2.5,6.39,6.39,0,0,0-5.36,2.5A9.87,9.87,0,0,0,409,80a9.29,9.29,0,0,0,1.92,6.07,6.58,6.58,0,0,0,5.5,2.57,6.3,6.3,0,0,0,5.36-2.57A9.24,9.24,0,0,0,423.7,80Zm50.08,16.79h-9.85V76.9c0-3.72-1.62-5.57-4.86-5.57q-5.51,0-5.5,6.21V96.83h-9.93V72.54a82.48,82.48,0,0,0-.93-9.43h10.15L453,65a11.67,11.67,0,0,1,7.78-2.86q6.87,0,10.22,4.43,2.79,3.65,2.78,9.93Zm40.59,0h-9.86V76.9c0-3.72-1.62-5.57-4.86-5.57q-5.49,0-5.49,6.21V96.83h-9.93V72.54a82.48,82.48,0,0,0-.93-9.43h10.14l.14,1.93a11.7,11.7,0,0,1,7.79-2.86q6.86,0,10.21,4.43,2.79,3.65,2.79,9.93Zm42.44-14.36H533.53q.71,6.21,7,6.21,4.5,0,5.85-3.35h10.29q-2.94,12.49-16.22,12.5-8.41,0-13.14-5.5A18.3,18.3,0,0,1,523.17,80a19.07,19.07,0,0,1,4-12.07,15.48,15.48,0,0,1,12.71-5.86q8.86,0,13.29,6.43Q556.82,73.9,556.81,82.47ZM546,76q-.57-4.79-6-4.79-4.71,0-5.85,4.79Zm50.52,7.64q-.59,14.14-15.22,14.15-8.78,0-12.93-5.5c-2.33-3-3.5-7.12-3.5-12.36a19.11,19.11,0,0,1,3.93-12.07q4.65-5.79,12.72-5.79,6.71,0,10.64,3.5,4.14,3.8,4.36,10.64h-9.86c-.24-2-.81-3.26-1.71-3.92a6.17,6.17,0,0,0-4-1.08,4.87,4.87,0,0,0-4.22,2.65,11.16,11.16,0,0,0-1.64,6A11.9,11.9,0,0,0,576.47,86a4.89,4.89,0,0,0,4.43,2.64c3.38,0,5.23-1.66,5.57-5Zm32.58-11.85h-8.14l-.15,14.35a1.26,1.26,0,0,0,1.43,1.43h6v9.22h-7c-3.33,0-5.9-.89-7.71-2.65a10.07,10.07,0,0,1-2.57-7.5l.14-14.85h-7.64V62.61h7.71l.07-5.36,9.93-4.71-.07,10.07h8ZM208,69.94v-.16c4.15-1.6,8.53-5.5,8.53-11.4,0-11-8.53-14.67-18.41-14.67H169.8v55.8h28.85c12.76,0,21-5.82,21-15.62C219.62,76.24,214.44,71.45,208,69.94Zm-21-13.4h6.77c4,0,5.66,1.52,5.66,4.55,0,2.79-2.15,4.38-6.06,4.38h-6.37Zm9.24,30.14h-9.24V77.91h8.85c4.62,0,6.69,1.51,6.69,4.3C202.48,85.32,200.25,86.68,196.18,86.68Zm68.26-15.47h-.23L242.6,43.71H225.7v55.8h16.9V70h.16L266,99.51h15.15V43.71H264.44Zm24-10.43,17.14-17.07H288.4Zm0,38.73h17.14V50.24L288.4,67.31Zm26.71-4.41a3.22,3.22,0,0,0-.67-1,3,3,0,0,0-1-.65,3,3,0,0,0-1.2-.24,3.06,3.06,0,0,0-1.2.24,3.2,3.2,0,0,0-1,.65,3,3,0,0,0-.67,1,2.88,2.88,0,0,0-.25,1.21,3,3,0,0,0,.25,1.24,2.94,2.94,0,0,0,.67,1,3,3,0,0,0,1,.65,3.06,3.06,0,0,0,1.2.24,3,3,0,0,0,1.2-.24,2.89,2.89,0,0,0,1-.65,3.1,3.1,0,0,0,.67-1,3.16,3.16,0,0,0,.25-1.24A3,3,0,0,0,315.11,95.1Zm-.51,2.27a2.63,2.63,0,0,1-.54.84,2.48,2.48,0,0,1-1.81.76,2.6,2.6,0,0,1-1-.2,2.55,2.55,0,0,1-.81-.56,2.63,2.63,0,0,1-.54-.84,2.82,2.82,0,0,1-.2-1.06,2.7,2.7,0,0,1,.2-1,2.48,2.48,0,0,1,.54-.83,2.55,2.55,0,0,1,.81-.56,2.6,2.6,0,0,1,1-.2,2.48,2.48,0,0,1,1.81.76,2.48,2.48,0,0,1,.54.83,2.7,2.7,0,0,1,.19,1A2.81,2.81,0,0,1,314.6,97.37Zm-1.25-1.1a.88.88,0,0,0,.26-.69.94.94,0,0,0-.3-.76,1.46,1.46,0,0,0-.92-.25H311v3.51h.55V96.57h.57l1,1.51h.58l-1-1.55A1.22,1.22,0,0,0,313.35,96.27Zm-1.17-.09h-.59V95h.75l.28,0a.66.66,0,0,1,.26.08.46.46,0,0,1,.18.16.5.5,0,0,1,.07.29.64.64,0,0,1-.07.34.55.55,0,0,1-.22.18.88.88,0,0,1-.3.07Z"/></svg>