<svg id="圖層_1" data-name="圖層 1" xmlns="http://www.w3.org/2000/svg" xmlns:xlink="http://www.w3.org/1999/xlink" viewBox="0 0 600 120"><defs><style>.cls-1{fill:url(#未命名漸層_105);}</style><linearGradient id="未命名漸層_105" x1="60.57" y1="60" x2="509.64" y2="60" gradientUnits="userSpaceOnUse"><stop offset="0" stop-color="#a71c46"/><stop offset="0.44" stop-color="#711534"/><stop offset="0.8" stop-color="#4b1027"/><stop offset="0.98" stop-color="#3d0e22"/></linearGradient></defs><path class="cls-1" d="M88,25.63a22.82,22.82,0,0,0-17.4-6.54c-10.67.4-13.9,13.67-4.52,18.4,17.57,8.86,29.6,21.82,32.44,36.75h0C105.23,58,100.49,37.62,88,25.63Zm28.63,17.49A12.2,12.2,0,0,0,114,42.6a40.7,40.7,0,0,1-10,26.85C110.48,65,128,49.44,116.65,43.12Zm-5.33-.55c1.08-10.85-8.38-22.44-19.49-15.84,10.11,11.5,14.17,29.09,9.5,44A41,41,0,0,0,111.32,42.57ZM95.6,92.6c15.08-16,60.63,13.3,64-34.31,0,0-16.84,16.81-40.42,21.17C98.46,83.3,95.6,92.6,95.6,92.6Zm12.91.41c12.69,11.86,28.39,4.69,31.91-3.68-11.62,2.58-36.58-4-42,2.62A15.19,15.19,0,0,1,108.51,93Zm4.82,6.22M94.7,109.31S86.07,86.6,110.48,79.8c23.28-6.49,75.07-22.37,46.9-69.11C149.68,63.3,68.94,69.33,94.7,109.31Zm275.92-20A5,5,0,0,0,369,88.25a6.21,6.21,0,0,0-2-.31,4.43,4.43,0,0,0-3.39,1.23,4.28,4.28,0,0,0-1.24,3.31,4.68,4.68,0,0,0,1.16,3.32A4.44,4.44,0,0,0,366.76,97a6.56,6.56,0,0,0,2-.46,7.05,7.05,0,0,0,1.85-1.08v2.85a8.9,8.9,0,0,1-1.85.69,6.89,6.89,0,0,1-2.08.31,7.65,7.65,0,0,1-5.24-1.93,7.26,7.26,0,0,1,0-9.86,7.18,7.18,0,0,1,5.31-1.92,9.29,9.29,0,0,1,2.16.23,14.26,14.26,0,0,1,1.85.69ZM372.76,99V85.93h2.77v5.32h5.7V85.93H384V99h-2.77V93.56h-5.7V99Zm21.36-13.1h-3.24L386,99H389l.92-2.77H395L396,99h3.16Zm-3.47,8.17L392,89.86a2.6,2.6,0,0,1,.15-.61c.05-.31.13-.7.23-1.16.11.46.18.82.24,1.08a4.76,4.76,0,0,0,.15.69l1.46,4.24Zm17.51-7.24a5.62,5.62,0,0,0-3.77-.93h-3.16V99H404V94.1h.77a5.38,5.38,0,0,0,3.47-1.16,4.12,4.12,0,0,0,1.23-3A3.61,3.61,0,0,0,408.16,86.86Zm-2.08,4.54a2.74,2.74,0,0,1-1.69.47H404V88h.39a2.44,2.44,0,0,1,1.69.39,1.83,1.83,0,0,1,.54,1.46A1.92,1.92,0,0,1,406.08,91.4Zm11.43-3.08V99h-2.85V88.32H411.5V85.93h9.24v2.39ZM422.73,99V85.93h7.7v2.39H425.5V91h4.93v2.39H425.5v3.31h4.93V99Zm15.54-5.93a3.35,3.35,0,0,0,2-1.16,3.81,3.81,0,0,0,.84-2.31,3.25,3.25,0,0,0-1.23-2.77,5.43,5.43,0,0,0-3.46-.93h-4V99h2.77V92.94L438.66,99h3.24Zm-.61-1.85a5.66,5.66,0,0,1-2.08.31h-.39V88.09h.39a4.14,4.14,0,0,1,2.08.31c.46.2.72.69.77,1.46A1.49,1.49,0,0,1,437.66,91.25ZM265.91,85.87,262.32,99h-2.45l-2.75-8.55L254.38,99H252l-3.65-13.16h2.81l2.17,8.18,2.61-8.18h2.41L261,94.05l2.19-8.18ZM271.16,99h-2.78V85.86h2.78Zm14.1,0h-2.63l-5.33-8.24V99h-2.8V85.86h2.7l5.29,8.19V85.86h2.77Zm13.33-.81a10.36,10.36,0,0,1-5,1.1,5.54,5.54,0,0,1-4.68-2.19,8.37,8.37,0,0,1,0-9.24,5.41,5.41,0,0,1,4.63-2.21A5.12,5.12,0,0,1,297,86.8a4.73,4.73,0,0,1,1.51,3.68h-2.8a2.88,2.88,0,0,0-.63-1.82,2.26,2.26,0,0,0-1.62-.49,2.69,2.69,0,0,0-2.38,1.37,5.58,5.58,0,0,0-.74,2.94q0,4.3,3.7,4.31a5.75,5.75,0,0,0,1.77-.27V94h-3.1V91.48h5.86Zm12.42-3c0,2.72-1.83,4.08-5.47,4.08A4.29,4.29,0,0,1,302.15,98a5.32,5.32,0,0,1-1.24-3.65h2.88a3,3,0,0,0,.53,1.94,2.28,2.28,0,0,0,1.71.51,2.46,2.46,0,0,0,1.49-.41,1.28,1.28,0,0,0,.59-1.1q0-.58-1-1.05l-2.35-.87a7.9,7.9,0,0,1-2.42-1.27,3.09,3.09,0,0,1-1.09-2.43,3.53,3.53,0,0,1,1.47-3,5.09,5.09,0,0,1,3.23-1,5.23,5.23,0,0,1,3.39,1,4.43,4.43,0,0,1,1.47,3.51H308c-.05-1.34-.68-2-1.86-2a2.5,2.5,0,0,0-1.41.35,1.12,1.12,0,0,0-.55,1c0,.42.26.77.8,1.06.08,0,.54.21,1.37.51a19.41,19.41,0,0,1,3.12,1.35A3.23,3.23,0,0,1,311,95.22ZM323.37,90c0,2.73-1.95,4.1-5.83,4.1h-1.09v5h-2.79V85.86h3.8Q323.37,85.86,323.37,90Zm-2.91,0c0-1.06-.76-1.59-2.29-1.59h-1.72v3.16h1.72C319.7,91.52,320.46,91,320.46,90ZM337.52,99h-3l-1.41-3.16h-4.9L326.84,99h-3l5.72-13.17h2.23Zm-5.47-5.71L330.68,90l-1.38,3.29ZM350,99h-2.63L342,90.77V99h-2.8V85.86h2.7l5.29,8.19V85.86H350Zm-169-52.5c0-.3.13-.45.41-.45a10.9,10.9,0,0,1,2.11.24,10.6,10.6,0,0,1,2.31.76,5.62,5.62,0,0,1,1.84,1.32,2.79,2.79,0,0,1,.75,1.95,2.85,2.85,0,0,1-.77,2,2.61,2.61,0,0,1-2,.82,2.34,2.34,0,0,1-1.55-.8,10.47,10.47,0,0,1-1.52-1.89,13.09,13.09,0,0,1-1.17-2.21A5.07,5.07,0,0,1,180.94,46.51Zm13.34-3.82.09.22a.63.63,0,0,1-.05.28q-.85,2.64-1.82,5.28c-.63,1.76-1.22,3.54-1.75,5.35s-1,3.62-1.32,5.44a29.32,29.32,0,0,0-.52,5.55,8.28,8.28,0,0,0,.25,2q.24,1,.54,2c.2.65.38,1.31.55,2a8.28,8.28,0,0,1,.25,2.05v.93a4.48,4.48,0,0,1-.09.94A2.73,2.73,0,0,1,189,76.51a4.87,4.87,0,0,1-2.26.6,3.42,3.42,0,0,1-1.89-.51,1.88,1.88,0,0,1-.8-1.73,19.26,19.26,0,0,1,.12-2.09c.07-.73.14-1.46.2-2.19a17.36,17.36,0,0,0,.05-2.16,7.15,7.15,0,0,0-.37-2,2.67,2.67,0,0,0-.68-1.15,10.91,10.91,0,0,0-1.09-.76c-.15-.06-.23-.15-.23-.27s.11-.14.32-.23l.71-.29c.25-.11.51-.21.77-.3a1.42,1.42,0,0,0,.52-.27,6.84,6.84,0,0,0,1.32-1.8q.78-1.34,1.53-2.94c.5-1.06,1-2.1,1.39-3.12s.74-1.78.95-2.3c.28-.72.58-1.56.91-2.5s.7-1.89,1.07-2.84.78-1.87,1.19-2.74a12.41,12.41,0,0,1,1.3-2.2c.06-.06.1-.09.13-.09Zm-9.93-6.51c0-.31.12-.46.37-.46a18.19,18.19,0,0,1,2.36.18,10.17,10.17,0,0,1,2.6.69,6.35,6.35,0,0,1,2.1,1.36,3,3,0,0,1,.86,2.23A2.51,2.51,0,0,1,190,42.82a2.71,2.71,0,0,1-1.55-.82,15.44,15.44,0,0,1-1.87-1.91A17.27,17.27,0,0,1,185,37.88,3.81,3.81,0,0,1,184.35,36.18ZM192.73,65l1.16,0c.53,0,1.12,0,1.75,0s1.32,0,2,0h2l1.57.05a6.34,6.34,0,0,1,.89.06.85.85,0,0,1-.27.19.78.78,0,0,1-.28.09h-8.83l-.18-.18Zm29.32.14a16.94,16.94,0,0,0-1.35-1.3,13,13,0,0,0-1.47-1.14,2.44,2.44,0,0,0-1-.48,1.72,1.72,0,0,0-.63.39c-.34.26-.68.54-1.05.84l-1,.84a1.64,1.64,0,0,1-.62.39h-4.51c-.33,0-.47-.15-.43-.46a4.2,4.2,0,0,1,.32-1c.17-.38.35-.75.55-1.11a2.51,2.51,0,0,0,.29-.69.26.26,0,0,0-.13-.25l-.28-.11a9.68,9.68,0,0,0-1.39-.25c-.59-.08-1.19-.17-1.82-.28a12.16,12.16,0,0,1-1.7-.4,1.89,1.89,0,0,1-1.05-.67.71.71,0,0,1,.09-.31.28.28,0,0,1,.27-.19h10.2a.31.31,0,0,1,.3.16,1.13,1.13,0,0,1,.07.39,2.9,2.9,0,0,1,0,.43c0,.14,0,.25,0,.35a.47.47,0,0,0,.5.52l.87,0c.18,0,.5,0,1-.07a13.85,13.85,0,0,0,1.42-.2,5.73,5.73,0,0,0,1.27-.39c.38-.17.57-.37.57-.61V48.88a.51.51,0,0,1,.16-.32,1.87,1.87,0,0,1,.39-.34l.45-.32a3.37,3.37,0,0,0,.37-.3q0-.23-.69-.84c-.45-.41-1-.83-1.52-1.25s-1.12-.82-1.66-1.18a6.09,6.09,0,0,0-1.1-.64,2.54,2.54,0,0,0-.77.61c-.3.32-.6.65-.89,1s-.56.64-.82.91-.46.41-.61.41h-1.41l-.78,0a2.64,2.64,0,0,0-.5.07,1,1,0,0,0,.84.39c.41,0,.84,0,1.28,0a8.65,8.65,0,0,1,1.16,0c.33,0,.5.18.5.46V57.8a.41.41,0,0,1-.46.46c-.15,0-.42,0-.81,0l-1.26,0-1.2,0c-.37,0-.58-.05-.64-.12a1.06,1.06,0,0,1-.2-.81c0-.4,0-.7,0-.91,0-2.28-.06-4.53-.16-6.77s-.16-4.48-.16-6.76a.92.92,0,0,1,.5-.77,1.13,1.13,0,0,1,.32-.14c.18-.06.38-.11.59-.16l.59-.13.41-.12c.43-.12,1-.26,1.8-.43s1.56-.36,2.37-.59,1.55-.47,2.25-.73a4.14,4.14,0,0,0,1.46-.8l-.09-.22-.87-.89-1.34-1.39c-.47-.49-.91-.92-1.3-1.3a7.94,7.94,0,0,0-.73-.66,2.44,2.44,0,0,0-.82.64c-.3.33-.63.68-1,1s-.7.67-1,1a1.58,1.58,0,0,1-1,.43H196.1l-.32.14-.09.14.09.22.16,0,.16,0h16.39l.32.19.09.27-.09.27-.6.57c-.3.29-.63.59-1,.89s-.67.58-1,.82a1.43,1.43,0,0,1-.57.36,10.17,10.17,0,0,1-1.82-.16q-.91-.15-1.8-.36c-.59-.14-1.19-.26-1.8-.37a11.08,11.08,0,0,0-1.82-.15c-.12,0-.18.07-.18.22l.14.32,1,1,1.62,1.59c.56.57,1.06,1.08,1.5,1.55a2.87,2.87,0,0,1,.66.85.66.66,0,0,1-.23.59,1.25,1.25,0,0,1-.64.13,11.78,11.78,0,0,1-3.48-.54c-1.17-.37-2.29-.76-3.35-1.19-.57-.24-1.19-.48-1.84-.72a5.38,5.38,0,0,0-1.94-.37.4.4,0,0,0-.45.46q0,4.23.16,8.37c.1,2.76.16,5.56.16,8.38,0,.24.09.38.27.41a3.41,3.41,0,0,0,.55.05,4.8,4.8,0,0,0,2.18-.44,7.25,7.25,0,0,0,1.48-.95c.41-.35.77-.67,1.07-1a1.43,1.43,0,0,1,1-.43,1.41,1.41,0,0,1,1.28.57,2.54,2.54,0,0,1,.36,1.39,9.11,9.11,0,0,1-.32,2.43,9.66,9.66,0,0,0-.31,2.44,2.37,2.37,0,0,1-.39,1c-.26.46-.59,1-1,1.53S201,69.39,200.45,70s-1,1.19-1.44,1.73-.88,1-1.27,1.44-.7.7-.91.88a7.91,7.91,0,0,1-.71.48l-1.09.71c-.38.24-.72.47-1,.68s-.46.36-.46.46,0,.09.14.11a.94.94,0,0,0,.22,0,10.3,10.3,0,0,0,3.65-.7A19.71,19.71,0,0,0,201.17,74a27,27,0,0,0,3.28-2.46,31.82,31.82,0,0,0,2.67-2.62,4,4,0,0,0,.54-.8c.15-.29.3-.57.44-.86s.27-.57.43-.85a3.76,3.76,0,0,1,.59-.77,10.84,10.84,0,0,1,1.23-.16l1.75-.11,1.78-.07,1.34,0c.21,0,.33.08.36.25a2.7,2.7,0,0,1,0,.48c0,.36,0,.85-.09,1.48a9.43,9.43,0,0,1-.37,1.86,5.5,5.5,0,0,1-.75,1.62,1.42,1.42,0,0,1-1.2.68h-3.83l-.13.14.09.22a13.14,13.14,0,0,1,1.86,1.51,4.46,4.46,0,0,1,1,2.14,3.59,3.59,0,0,1,.07.45,2.2,2.2,0,0,0,.34,1,.42.42,0,0,0,.36.2,3,3,0,0,0,.89-.13c.29-.09.57-.17.84-.23a8.12,8.12,0,0,0,3.65-2,8.67,8.67,0,0,0,2-3.64,5.21,5.21,0,0,0,.23-1q.09-.54.21-1.11c.07-.38.15-.74.23-1.07a3.55,3.55,0,0,1,.29-.87,2.21,2.21,0,0,1,.25-.32l.41-.43.39-.39c.12-.12.18-.19.18-.22C222.64,65.81,222.44,65.51,222.05,65.09Zm-20.49-6.83A.87.87,0,0,1,201,58a.72.72,0,0,1-.3-.5v-10a.4.4,0,0,1,.46-.45h4a.4.4,0,0,1,.46.45V57.8a.41.41,0,0,1-.46.46Zm3-5.92.09.09-.13.09c-.28,0-.69,0-1.23,0a1.51,1.51,0,0,1-1.1-.22c0-.09.1-.15.28-.19a5.6,5.6,0,0,1,.64,0c.24,0,.46,0,.68,0a2.48,2.48,0,0,0,.45.05Zm8-.14h1.73l.32.14.09.13a1.43,1.43,0,0,1-.46.07c-.24,0-.51,0-.82,0s-.58,0-.84,0a1,1,0,0,1-.43-.07l.09-.13Zm16.84,17h1.19c.57,0,1.24,0,2,0l2.39,0,2.3,0c.7,0,1.29,0,1.77,0a3.41,3.41,0,0,1,.82,0,.93.93,0,0,1-.34.18,1.18,1.18,0,0,1-.38.09h-9.75l-.18-.18Zm.23-23.4c.37,0,.87-.1,1.53-.2s1.32-.23,2-.37a15.15,15.15,0,0,0,2-.5,4,4,0,0,0,1.28-.61l.09-.23a2.16,2.16,0,0,0-.62-1.11,15.12,15.12,0,0,0-1.14-1.12c-.41-.37-.78-.72-1.11-1.07a1.49,1.49,0,0,1-.5-1c0-.1.05-.16.18-.19a3.51,3.51,0,0,1,.43-.07l.47,0h.32a11.87,11.87,0,0,1,1.28.07,5,5,0,0,1,1.31.3,2.65,2.65,0,0,1,1,.68,1.69,1.69,0,0,1,.43,1.23,1.83,1.83,0,0,1-.27,1,1.54,1.54,0,0,0-.28.69.42.42,0,0,0,.32.45,2.06,2.06,0,0,0,.76,0c.3,0,.59-.07.86-.12a5.62,5.62,0,0,1,.61-.07c.12,0,.18,0,.18.14s-.28.51-.86,1-1.24,1-2,1.48l-2.19,1.48c-.7.47-1.15.8-1.37,1s-.53.43-.79.66a3.89,3.89,0,0,1-.84.57l-.28-.09c-.15-.19-.38-.45-.68-.8s-.61-.71-.91-1.09L230,46.74a5.39,5.39,0,0,1-.53-.78Zm10.52,18.53a7.82,7.82,0,0,1-1.35.16c-.71,0-1.48.08-2.29.11s-1.61.06-2.37.07l-1.6,0a.28.28,0,0,1-.31-.32c0-.22.1-.32.31-.32h6.88a1.31,1.31,0,0,1,.41.07A.54.54,0,0,1,240.08,64.31ZM242,56c0-.1.07-.15.22-.16l.32,0c.12,0,.31,0,.57,0l.8,0a6.29,6.29,0,0,1,.77,0,.81.81,0,0,1,.5.19.24.24,0,0,1-.18.11l-.23,0a5.86,5.86,0,0,0-.61.05,7.46,7.46,0,0,1-.85,0,6.65,6.65,0,0,1-.81,0A.84.84,0,0,1,242,56Zm9.1,8.14c0,.1-.08.15-.25.16l-.34,0c-.15,0-.34,0-.57,0l-.71,0a4.88,4.88,0,0,1-.68,0,.73.73,0,0,1-.45-.19c0-.09.11-.14.34-.16l.43,0,1.18,0A1.52,1.52,0,0,1,251.14,64.17Zm6.28-20.94a.82.82,0,0,0,.55.19,3.9,3.9,0,0,0,.66-.07l.68-.16a2.44,2.44,0,0,1,.62-.09,1.29,1.29,0,0,1,.25,0,.16.16,0,0,1,.16.16c0,.06-.07.16-.21.29l-.3.3c-.12.12-.37.34-.74.66l-1.33,1.12L256.17,47c-.56.45-1.09.87-1.59,1.25s-.93.69-1.3.93a1.86,1.86,0,0,1-.68.36q-.09,0-.6-.54c-.33-.36-.69-.77-1.06-1.21s-.72-.86-1-1.25a2.2,2.2,0,0,1-.45-.73c0-.15.22-.29.66-.43a14.43,14.43,0,0,1,1.52-.39l1.64-.34a4.86,4.86,0,0,0,1.05-.3.79.79,0,0,0,.29-1.09,6.72,6.72,0,0,0-.86-1.48c-.38-.5-.75-1-1.12-1.36s-.54-.68-.54-.8.29-.4.88-.48a6.32,6.32,0,0,1,1.92.09,5.15,5.15,0,0,1,1.88.8,1.88,1.88,0,0,1,.87,1.64,2.45,2.45,0,0,1-.14.8A1.76,1.76,0,0,0,257.42,43.23ZM253.74,56c0-.1.09-.15.27-.16l.36,0c.12,0,.33,0,.62,0l.91,0a8,8,0,0,1,.88,0,.87.87,0,0,1,.55.19c0,.06-.13.09-.39.11l-.47,0-.59,0q-.42,0-.87,0a6.68,6.68,0,0,1-.82-.05A.84.84,0,0,1,253.74,56ZM265,77.11a4.2,4.2,0,0,1-1.27-.39c-.61-.26-1.31-.59-2.1-1s-1.61-.83-2.46-1.3-1.63-.92-2.34-1.37-1.3-.82-1.76-1.13-.68-.54-.68-.66a.23.23,0,0,1,.25-.25l.39,0,2,0c.85,0,1.79.06,2.82.13s2.09.19,3.16.35a17.77,17.77,0,0,1,2.94.65,7,7,0,0,1,2.16,1.1,2,2,0,0,1,.84,1.61,1.44,1.44,0,0,1-.43,1.07,3.15,3.15,0,0,1-1,.69,6.24,6.24,0,0,1-1.3.36A8.2,8.2,0,0,1,265,77.11Zm4.6-7.47c.3,0,.45-.14.45-.41a2.72,2.72,0,0,0-.82-.84l-1.32-1a13.11,13.11,0,0,1-1.23-1.07,1.5,1.5,0,0,1-.54-1,.53.53,0,0,1,.25-.45,2.33,2.33,0,0,1,.59-.3,4.44,4.44,0,0,1,.68-.16,4.12,4.12,0,0,1,.53,0l.13-.19-.13-.22c-.67-.49-1.32-1-1.94-1.5s-1.22-1.07-1.8-1.64l-.09-.28a3.33,3.33,0,0,1,.28-.45.9.9,0,0,0,.18-.46V53a.48.48,0,0,1,.32-.43.9.9,0,0,0,.45-.52l-.09-.23-1.14-1.09,0-.18.18-.19a6.31,6.31,0,0,0,2.57-1.93,5.84,5.84,0,0,0,1-2.48,10.91,10.91,0,0,0,.1-2.87Q268,41.55,268,40l.13-.32a2.79,2.79,0,0,1,.71-.48,1,1,0,0,0,.57-.62l-.14-.22c-.06-.07-.31-.27-.75-.62s-.93-.72-1.48-1.11-1.07-.76-1.57-1.1-.81-.53-.93-.59a2.1,2.1,0,0,0-.71.57l-.78.87-.72.79c-.23.25-.42.37-.57.37H251.37a.36.36,0,1,0,0,.72h10.7a.4.4,0,0,1,.45.46v6.56a.69.69,0,0,1-.32.61,2.63,2.63,0,0,1-.7.32l-.71.2c-.21.07-.32.16-.32.28a1.31,1.31,0,0,0,.14.59,1.31,1.31,0,0,1,.14.59,1.86,1.86,0,0,1-.3.75,8.09,8.09,0,0,1-.71,1.05,9.65,9.65,0,0,1-.81.93c-.28.28-.49.41-.64.41h-15c-.27,0-.41-.1-.43-.2a.33.33,0,0,1,.14-.3,1.71,1.71,0,0,1,.41-.25,2.93,2.93,0,0,1,.38-.16,5.22,5.22,0,0,0,3.53-2.16,8.1,8.1,0,0,0,.89-4.12,16.83,16.83,0,0,0-.11-1.89A14.75,14.75,0,0,1,248,40a.47.47,0,0,1,.16-.34,4.06,4.06,0,0,1,.37-.32l.38-.32a.65.65,0,0,0,.23-.39,3.91,3.91,0,0,0-.77-.86c-.46-.42-1-.86-1.5-1.3s-1-.82-1.51-1.14-.73-.46-.82-.43l-.27.14a2.65,2.65,0,0,0-.57.54c-.23.28-.46.55-.71.82s-.47.53-.7.76-.4.34-.52.34H230.88a.36.36,0,0,0-.36.2.54.54,0,0,0,0,.43.14.14,0,0,0,.09,0h.09a9,9,0,0,0,1.27.09h1.28l4.39,0,4.4,0a.4.4,0,0,1,.45.46v6.56a.69.69,0,0,1-.32.61,2.82,2.82,0,0,1-.68.32l-.68.23c-.22.07-.32.19-.32.34a.75.75,0,0,0,.18.32,5,5,0,0,1,.39.59,5.93,5.93,0,0,1,.38.89,3.4,3.4,0,0,1,.19,1.11c0,.52-.09.82-.26.91a2.12,2.12,0,0,1-.93.14,3.11,3.11,0,0,1-1.2-.25c-.41-.17-.82-.35-1.23-.55s-.83-.38-1.23-.54a3.14,3.14,0,0,0-1.21-.26,1.91,1.91,0,0,0-.43.07.3.3,0,0,0-.25.3V61.58a.4.4,0,0,0,.45.46,5.68,5.68,0,0,0,1.32-.16c.43-.11.85-.23,1.28-.37s.85-.26,1.27-.36a5.3,5.3,0,0,1,1.32-.16c.15,0,.28.1.39.32a2.87,2.87,0,0,1,.25.75,5.1,5.1,0,0,1,.11.84c0,.27,0,.47,0,.59a1,1,0,0,1-.16.52,1,1,0,0,0-.16.57,7.13,7.13,0,0,0,.45,2.53,7,7,0,0,1,.46,2.53q0,.4-.75,1A21.17,21.17,0,0,1,239.28,72c-.74.49-1.55,1-2.41,1.46l-2.42,1.37c-.74.42-1.36.79-1.86,1.09s-.75.5-.75.59.12.24.36.25l.5,0a12.82,12.82,0,0,0,4-.64c1.29-.43,2.57-.91,3.84-1.46s2.57-1.06,3.87-1.55a15.54,15.54,0,0,1,4-.91l.13-.18-.13-.18a7.82,7.82,0,0,1-.87-.23c-.39-.12-.8-.26-1.23-.43a7.17,7.17,0,0,1-1.11-.55c-.32-.2-.48-.4-.48-.61s.15-.41.46-.41Zm-5.24-5a.89.89,0,0,1,.64.25.81.81,0,0,1,.27.62,2.2,2.2,0,0,1-.29.88,8.07,8.07,0,0,1-.73,1.14,6.17,6.17,0,0,1-.91,1,1.41,1.41,0,0,1-.8.41h-3.78a.4.4,0,0,1-.45-.45V65.09a.4.4,0,0,1,.45-.46Zm-3.53-3.71a9.39,9.39,0,0,1,2.17-.25.4.4,0,0,1,.45.45A1.94,1.94,0,0,1,263,62.4a4.18,4.18,0,0,1-1.14.93,5.41,5.41,0,0,1-1.44.57,5.83,5.83,0,0,1-1.34.18.71.71,0,0,1-.57-.2,1.32,1.32,0,0,1-.22-.48,1.63,1.63,0,0,1,0-.59c0-.21,0-.41,0-.59a1.21,1.21,0,0,1,.23-.78l.23-.13A20.47,20.47,0,0,0,260.81,60.92ZM246.72,61a.41.41,0,0,1,.46-.46h4.55a.4.4,0,0,0,.46-.45V56.62a.53.53,0,0,1,.16-.39.63.63,0,0,0,.11-.52l-.27-.46V52.38l.13-.32.05,0,.32-.14h5.73a.41.41,0,0,1,.46.46v7.28c0,.4-.33.6-1,.6a19.52,19.52,0,0,1-2.19-.14,19.49,19.49,0,0,0-2.18-.14c-.67,0-1,.2-1,.59v7.93a.4.4,0,0,1-.46.45h-4.87a.4.4,0,0,1-.46-.45Zm-5.6-.91a.4.4,0,0,1-.45-.46V52.34a.4.4,0,0,1,.45-.46H246a.41.41,0,0,1,.46.46v7.28a.4.4,0,0,1-.46.46Zm76,.09c-.19-.15-.53-.46-1.05-.91s-1.07-.93-1.66-1.41-1.13-.92-1.62-1.3a2.6,2.6,0,0,0-.91-.57c-.15,0-.35.17-.59.5s-.51.7-.8,1.09a10,10,0,0,1-.93,1.1,1.48,1.48,0,0,1-1.05.5h-12l-.32-.14a.93.93,0,0,1-.18-.5c0-.09.14-.27.43-.55l1-.88c.36-.32.72-.61,1.07-.87l.7-.52q2.19-1.64,4.24-3.33a19.71,19.71,0,0,0,3.64-4c.24-.33.52-.74.82-1.23s.62-1,1-1.45.67-.94,1-1.37a4.62,4.62,0,0,1,1-.95,3.13,3.13,0,0,1,.87-.37,1.42,1.42,0,0,0,.73-.41,2.48,2.48,0,0,0-.46-.59c-.27-.3-.6-.65-1-1l-1.25-1.22c-.45-.44-.87-.84-1.25-1.19l-1-.88a2.25,2.25,0,0,0-.45-.37c-.16,0-.39.14-.71.43s-.66.62-1,1l-1.07,1.1a3.13,3.13,0,0,1-.84.66.71.71,0,0,1-.39.11l-.39,0c-1.21,0-2.42.06-3.62.18s-2.4.18-3.62.18a1,1,0,0,1-.43-.11.41.41,0,0,1-.21-.39,1.8,1.8,0,0,1,.44-1,12.8,12.8,0,0,1,1-1.17l1-1c.29-.3.43-.5.43-.59,0-.24-.29-.5-.89-.75a14.9,14.9,0,0,0-2-.71c-.74-.21-1.47-.38-2.18-.52a9.54,9.54,0,0,0-1.44-.21c-.18,0-.42.23-.71.68s-.58,1-.88,1.55-.59,1.15-.84,1.71-.44.93-.53,1.12a47.42,47.42,0,0,1-3.91,6.12q-2.19,2.9-4.65,5.62a.76.76,0,0,0-.27.5c0,.16.09.23.27.23a4.41,4.41,0,0,0,2.1-.7c.82-.48,1.62-1,2.41-1.53s1.49-1.05,2.09-1.52a3,3,0,0,1,1.19-.71,1,1,0,0,1,.75.36,5,5,0,0,1,.64.87c.19.33.38.67.54,1l.39.8c.15.33.32.65.5,1a7.13,7.13,0,0,0,.64.9,6.07,6.07,0,0,0,2,1.74c.15.09.23.16.23.22A2.6,2.6,0,0,1,292,56.23a22,22,0,0,1-2.76,2.05c-1.11.71-2.3,1.43-3.59,2.16l-3.6,2c-1.11.62-2,1.16-2.76,1.61s-1.09.78-1.09,1,.07.18.21.18h.29a6.26,6.26,0,0,0,2.53-.52c.8-.35,1.6-.73,2.39-1.14s1.59-.79,2.41-1.14a6.56,6.56,0,0,1,2.6-.52.4.4,0,0,1,.45.45V76.74a.41.41,0,0,0,.46.46c.27,0,.7,0,1.29,0a17,17,0,0,0,1.83-.2,6.31,6.31,0,0,0,1.64-.51c.47-.22.7-.52.7-.88a5.83,5.83,0,0,0,0-.6,5.79,5.79,0,0,1,0-.84,2.93,2.93,0,0,1,.14-.77c.08-.23.2-.34.39-.34h13a.32.32,0,0,0,.23-.09,1.75,1.75,0,0,0-.27-.23.61.61,0,0,0-.32-.14H295.3a.4.4,0,0,1-.46-.45V60.58l.14-.32.32-.32.32-.14h1.55c.76,0,1.63,0,2.61,0l3.08,0h3c.93,0,1.7,0,2.32,0a8.46,8.46,0,0,1,1.07.1,3.67,3.67,0,0,1,.09.63c0,.34.06.7.07,1.1s0,.75,0,1.09V70.3q0,1.58,0,2.91t.06,2.25a3.08,3.08,0,0,0,.14,1,.74.74,0,0,0,.57.36h.7q.29,0,1-.09c.52-.06,1.05-.14,1.6-.25a8.37,8.37,0,0,0,1.45-.41c.43-.17.64-.34.64-.52V61.9a.55.55,0,0,1,.2-.37,3.69,3.69,0,0,1,.48-.34,4.5,4.5,0,0,0,.53-.36,1.19,1.19,0,0,0,.34-.43Zm-22-10.5a15.82,15.82,0,0,0-2-1.7,8.91,8.91,0,0,0-.93-.57,3.29,3.29,0,0,0-1-.34,3.82,3.82,0,0,0-.59-.07c-.24,0-.48-.05-.7-.09a1.62,1.62,0,0,1-.6-.25.66.66,0,0,1-.25-.55c0-.12.24-.4.71-.84s1-.92,1.59-1.44,1.16-1,1.71-1.41a8.9,8.9,0,0,1,1.09-.77,3.56,3.56,0,0,1,.73-.09l1.55-.09c.6,0,1.27-.06,2-.07l2.05,0,1.73,0,1,0a.36.36,0,0,1,.39.23,1.83,1.83,0,0,1,.07.46,3.22,3.22,0,0,1-.44.84c-.28.47-.64,1-1.07,1.68s-.89,1.37-1.41,2.14-1,1.51-1.5,2.19L298,50.59l-.73,1-.28-.09Q296,50.61,295.12,49.67Zm52.17-13.4a3.8,3.8,0,0,1-.79.73c-.35.24-.53.48-.53.73a49.82,49.82,0,0,0,.62,7.8,36.58,36.58,0,0,0,2,7.51,31.74,31.74,0,0,0,3.57,6.83,25,25,0,0,0,5.4,5.67,16.31,16.31,0,0,0,3.84,2.21q2.07.84,4.08,1.89c.24.12.36.26.36.41s-.12.32-.36.5a19.71,19.71,0,0,0-2,1.77A11.25,11.25,0,0,0,362,74.46a9.68,9.68,0,0,0-.62,1.19,3.35,3.35,0,0,1-.74,1.09.39.39,0,0,1-.23,0,25.9,25.9,0,0,1-6.95-6.37,35,35,0,0,1-4.62-8.24q-.23-.59-.57-1.53c-.22-.62-.47-1.25-.73-1.88s-.51-1.25-.77-1.82a6.67,6.67,0,0,0-.75-1.33.68.68,0,0,0-.73.23,5.09,5.09,0,0,0-.48.78,8.08,8.08,0,0,1-.43.77c-.3.52-.6,1-.89,1.55s-.6,1-.93,1.55c-1.06,1.67-2.12,3.2-3.16,4.62A41.65,41.65,0,0,1,336,69a36.46,36.46,0,0,1-3.85,3.46,40.14,40.14,0,0,1-4.66,3.12c-.34.21-.76.45-1.28.72a4.29,4.29,0,0,1-1.32.51l0-.1a51.78,51.78,0,0,0,7.24-8.35,38.62,38.62,0,0,0,4.43-8.67,43.93,43.93,0,0,0,2.23-9.52,90.26,90.26,0,0,0,.62-11c0-.12,0-.39-.05-.82s0-.86,0-1.32a9.28,9.28,0,0,1,.07-1.23c0-.36.16-.55.34-.55h.09c1.21.16,2.43.28,3.64.37a36.12,36.12,0,0,1,3.6.45Zm30.23,29.91h11.25l.31.13.05,0-.09.09H377.52l-.14-.14Zm6.69-22.76a2.41,2.41,0,0,1-1.84-.82,8,8,0,0,1-1.3-2,16.11,16.11,0,0,1-.91-2.37c-.24-.82-.44-1.5-.59-2.05a1.11,1.11,0,0,1-.07-.29c0-.14.05-.21.21-.21A9.83,9.83,0,0,1,382,36a9.06,9.06,0,0,1,2.34.89,5.7,5.7,0,0,1,1.82,1.5,3.29,3.29,0,0,1,.73,2.14,3,3,0,0,1-.7,2A2.42,2.42,0,0,1,384.21,43.42Zm23,5.8c.65-.35,1.39-.71,2.23-1.09s1.64-.74,2.41-1.07,1.29-.56,1.53-.69a1.11,1.11,0,0,1,.27-.13c.09,0,.14-.12.14-.27s-.24-.39-.71-.89-1-1-1.55-1.64-1.09-1.12-1.61-1.6a3.34,3.34,0,0,0-.91-.7c-.12,0-.34.16-.66.5l-1.05,1.09c-.38.4-.75.76-1.12,1.09s-.63.51-.81.51h-8.65a.41.41,0,0,1-.46-.46v-7.6l.09-.23a2.43,2.43,0,0,0,.34-.3.68.68,0,0,0,.21-.38,4.26,4.26,0,0,0-1.07-.23c-.62-.09-1.32-.17-2.07-.25l-2.14-.21c-.67-.06-1.1-.09-1.28-.09a.4.4,0,0,0-.45.46v8.83a.41.41,0,0,1-.46.46H378.93c-.21,0-.38-.14-.5-.41a7.14,7.14,0,0,1-.32-.89c-.09-.32-.18-.62-.27-.89s-.2-.41-.32-.41-.15.08-.27.25l-.44.59-.45.64a3.85,3.85,0,0,0-.25.39c-.28.33-.63.71-1.07,1.14s-.87.87-1.3,1.34a10.63,10.63,0,0,0-1.09,1.43,2.57,2.57,0,0,0-.46,1.37A2.67,2.67,0,0,0,375,51.66a3.47,3.47,0,0,0,1.78-.41,3.38,3.38,0,0,0,1.09-1.07,4.81,4.81,0,0,0,.59-1.51,15.63,15.63,0,0,0,.27-1.75c0-.27.06-.55.07-.82a3.76,3.76,0,0,1,.12-.77L379,45a.35.35,0,0,1,.3-.11h26.59c.12,0,.19.07.22.23a2,2,0,0,1,.05.31,5.62,5.62,0,0,1-.14.89c-.09.44-.19.89-.31,1.34s-.25.87-.39,1.23-.25.55-.34.55a1.51,1.51,0,0,1-.48-.27c-.26-.18-.54-.4-.84-.64s-.58-.47-.82-.68a3.11,3.11,0,0,1-.46-.46l-.27-.09-.27.09c-.13.12-.32.33-.57.62s-.54.58-.85.88a10.3,10.3,0,0,1-.88.8,1.31,1.31,0,0,1-.62.34H387.13a3.83,3.83,0,0,1-1.71-.39c-.53-.25-1.06-.53-1.57-.81s-1-.57-1.5-.82a3.1,3.1,0,0,0-1.46-.39c-.31,0-.46.14-.46.41,0,1.18,0,2.37.05,3.57l.09,3.58c0,.36,0,.82,0,1.39s0,1.13,0,1.72,0,1.15,0,1.67a4.42,4.42,0,0,0,.16,1.23l.15.29a.33.33,0,0,0,.3.12,4.62,4.62,0,0,0,1.91-.41c.61-.28,1.2-.57,1.78-.89s1.16-.62,1.75-.89a4.62,4.62,0,0,1,1.94-.41,3.88,3.88,0,0,1,.57,0,3.6,3.6,0,0,0,.56,0l.37.23a.5.5,0,0,0,0,.16.54.54,0,0,1,.05.16v14.7a.4.4,0,0,1-.46.46H373.38c-.16,0-.23.07-.23.22s.07.23.23.23h39.74l.32-.18.09-.27-.14-.27a5.33,5.33,0,0,0-.72-.69c-.46-.39-1-.82-1.51-1.27s-1.07-.89-1.57-1.3l-.93-.75-.27.09a5.46,5.46,0,0,0-.62,1c-.23.44-.47.89-.73,1.34a7.51,7.51,0,0,1-.82,1.19,1.2,1.2,0,0,1-.88.49h-9a.4.4,0,0,1-.46-.45V59.62a.4.4,0,0,1,.46-.45h3.18c.21,0,.34.08.37.25s.06.34.09.52a1.44,1.44,0,0,0,.2.52c.11.17.35.25.71.25a8.56,8.56,0,0,0,1.05-.09c.51-.06,1.06-.14,1.64-.25a10.21,10.21,0,0,0,1.52-.38c.44-.15.66-.32.66-.5V52.06a.34.34,0,0,1,.16-.29,3.1,3.1,0,0,1,.36-.21,2.38,2.38,0,0,0,.39-.2.34.34,0,0,0,.18-.3c0-.12-.11-.3-.34-.54a1,1,0,0,1-.34-.6C406.2,49.8,406.53,49.57,407.18,49.22Zm-7.31,8.9a.4.4,0,0,1-.45.45H386.67l-.32-.13-.32-.32-.13-.32V51.15a.4.4,0,0,1,.45-.45h13.07a.4.4,0,0,1,.45.45ZM404.38,62c.15.1.49.35,1,.78s1.08.87,1.66,1.34,1.09.91,1.54,1.32.69.66.69.75a.17.17,0,0,1-.14.18.8.8,0,0,1-.23,0H397.1a.13.13,0,0,1-.14-.14c0-.15.19-.25.57-.31a8.37,8.37,0,0,1,1.3-.09c.48,0,.95,0,1.41,0l.91,0c.15,0,.35-.2.59-.6s.51-.83.8-1.32a12.09,12.09,0,0,1,.91-1.34A1.75,1.75,0,0,1,404.38,62Zm-3.73-26.54,2.45.64,2.46.64c.43.12.85.23,1.26.32a10.83,10.83,0,0,1,1.25.36l.09.18-.14.14a7.17,7.17,0,0,1-.84.64,9.18,9.18,0,0,0-.89.63l-1.41,1.17c-.61.49-1.25,1-1.94,1.45a22.43,22.43,0,0,1-2,1.25,3.48,3.48,0,0,1-1.61.55.32.32,0,0,1-.37-.36,13,13,0,0,1,.55-3.76c.36-1.23.67-2.47.91-3.71ZM433,35.22a11.32,11.32,0,0,1,1.37.45c.64.25,1.3.52,2,.82l2,.89q1,.43,1.38.66c.13,0,.19.12.19.28a.36.36,0,0,0-.05.13.12.12,0,0,1,0,.09,11.83,11.83,0,0,1-1.19,1.76c-.45.56-.89,1.1-1.32,1.61-.54.67-1.2,1.44-1.95,2.3s-1.58,1.75-2.46,2.64-1.82,1.79-2.8,2.69-2,1.71-3,2.46a21.41,21.41,0,0,1-3,1.86,10,10,0,0,1-2.75,1,.67.67,0,0,1-.34,0c-.17,0-.25-.09-.25-.24a.73.73,0,0,1,.27-.46q2-2.19,3.71-4.35a51.56,51.56,0,0,0,3.14-4.41,45.2,45.2,0,0,0,2.62-4.74,55.17,55.17,0,0,0,2.19-5.3Zm14.21,18.21.61-.61c.32-.32.66-.66,1-1s.69-.66,1-.92a1.54,1.54,0,0,1,.59-.38,2.82,2.82,0,0,1,.82.57l1.5,1.29,1.55,1.39c.48.44.8.72,1,.85l-.1.27a4.5,4.5,0,0,0-1.32.86,5.76,5.76,0,0,0-.23,2,18.31,18.31,0,0,1,0,2.1c0,1.12-.08,2.32-.17,3.59a30.62,30.62,0,0,1-.53,3.81,22.32,22.32,0,0,1-1.05,3.59,10.59,10.59,0,0,1-1.77,3,8.1,8.1,0,0,1-6.54,2.92.41.41,0,0,1-.36-.21,1.48,1.48,0,0,1-.2-.48,3.39,3.39,0,0,1-.1-.57,1.82,1.82,0,0,0-.06-.43A5,5,0,0,0,441.74,73,19.63,19.63,0,0,0,440,71.37a2.56,2.56,0,0,0-.27-.23.4.4,0,0,1-.18-.32c0-.12.1-.2.32-.23l.41,0h4.37a.84.84,0,0,0,.75-.39c.16-.26.31-.51.43-.75a11.9,11.9,0,0,0,.84-3q.35-2,.57-4.11c.16-1.44.26-2.85.32-4.22s.09-2.45.09-3.27a.4.4,0,0,0-.45-.46h-6.7c-.15,0-.25,0-.29.12a2.35,2.35,0,0,0-.16.29,9.45,9.45,0,0,0-.43,2,14.25,14.25,0,0,1-.39,2,31.85,31.85,0,0,1-1.82,5.05,21.27,21.27,0,0,1-2.53,4.12,21.85,21.85,0,0,1-3.41,3.46,31.46,31.46,0,0,1-4.44,3c-.24.15-.58.34-1,.57l-1.32.71a12.62,12.62,0,0,1-1.32.61,2.92,2.92,0,0,1-1,.25c-.25,0-.34-.06-.28-.18a1.93,1.93,0,0,1,.19-.32q1.77-2.1,3.29-3.66c1-1,1.94-2,2.76-2.92a26.28,26.28,0,0,0,2.16-2.66,13.35,13.35,0,0,0,1.57-3,17.65,17.65,0,0,0,1-3.87,38.12,38.12,0,0,0,.32-5.3c0-.25-.18-.41-.55-.48a5.56,5.56,0,0,0-1.37-.09c-.54,0-1.14.05-1.79.11s-1.26.1-1.8.11a5.6,5.6,0,0,1-1.37-.09q-.54-.1-.54-.48c0-.09.07-.13.22-.13h20.72ZM445.4,36.72l.23.14A20.68,20.68,0,0,0,449,40.62a32.06,32.06,0,0,0,4,3A38.25,38.25,0,0,0,457.47,46q2.31,1.05,4.64,1.91l.13.18-.13.19a9.27,9.27,0,0,0-1.55,1,9.14,9.14,0,0,0-1.14,1.19,11.93,11.93,0,0,0-.91,1.36c-.27.49-.57,1-.91,1.6a1.56,1.56,0,0,0-.16.2.21.21,0,0,1-.2.12.45.45,0,0,1-.32-.14,32.46,32.46,0,0,1-3.8-3.33,38.2,38.2,0,0,1-3.51-4.09,28.34,28.34,0,0,1-2.77-4.58,17.77,17.77,0,0,1-1.58-4.8Zm34.83,16.16v-.66c0-.22.15-.34.45-.34a2.45,2.45,0,0,1,1.25.39,6,6,0,0,1,1.26,1,6.34,6.34,0,0,1,1,1.25,2.56,2.56,0,0,1,.38,1.25,1.68,1.68,0,0,1-.66,1.39,2.23,2.23,0,0,1-1.43.52,1.64,1.64,0,0,1-1.32-.52,3.27,3.27,0,0,1-.66-1.27,6.84,6.84,0,0,1-.23-1.57C480.24,53.75,480.23,53.28,480.23,52.88Zm9-6.73c.43-.46.83-.92,1.21-1.39a8.66,8.66,0,0,0,1-1.53l.27-.13.27.09c.19.18.44.42.78.72s.68.62,1,.94.7.63,1,.93.5.52.59.64l-.09.18-.32.14H483a.23.23,0,0,1,0-.46h6Zm-5.23,23-.5-.23a3.21,3.21,0,0,1,.73-.06c.45,0,1,0,1.7,0h2.21q1.19,0,2.25,0l1.87,0h1l.09,0a.18.18,0,0,0,.1,0l-.55.23Zm25.26-25.49a4.26,4.26,0,0,0-1.13-.21,8.16,8.16,0,0,1-1.14-.11q-1-.13-2-.3c-.66-.1-1.32-.22-2-.34a39.46,39.46,0,0,1-4.51-1.09A32.21,32.21,0,0,1,494.21,40a5.77,5.77,0,0,1-.55-.28l-.66-.36c-.23-.12-.45-.23-.66-.32a1.42,1.42,0,0,0-.5-.14c-.15,0-.23,0-.23.14a2.8,2.8,0,0,0,.59,1.32,18.43,18.43,0,0,0,1.39,1.77q.8.91,1.59,1.71c.53.53.94.9,1.21,1.12a7.31,7.31,0,0,0,.87.61l1.09.69a11,11,0,0,1,1,.7,3.61,3.61,0,0,1,.68.68,1,1,0,0,1-.27.6,6,6,0,0,1-.62.61,7.36,7.36,0,0,1-.7.55,3.29,3.29,0,0,0-.55.43H479.36a3.08,3.08,0,0,1-.66-.14c-.31-.09-.64-.2-1-.32a4.49,4.49,0,0,1-.88-.41c-.26-.15-.39-.28-.39-.41s.21-.29.64-.61,1-.68,1.59-1.09S480,46,480.8,45.49L483,44.12l1.89-1.18,1.14-.75a16.76,16.76,0,0,0,1.57-1.44c.47-.5.94-1,1.43-1.46A11.32,11.32,0,0,1,490.63,38a7.56,7.56,0,0,1,2-.93l.14-.23-.14-.18a16.14,16.14,0,0,1-2.8-.69c-.89-.3-1.81-.57-2.75-.82L486.6,35l-.66-.18-.64-.16a1.81,1.81,0,0,0-.38-.07c-.12,0-.2,0-.23.11a.6.6,0,0,1-.14.21A53.21,53.21,0,0,1,480,41.41a32.87,32.87,0,0,1-5.78,5.65A22.61,22.61,0,0,1,472,48.49a9.74,9.74,0,0,0-2.07,1.57l-.16.18a.37.37,0,0,0-.07.19c0,.15.11.22.32.22a2,2,0,0,0,.84-.22l1-.46c.32-.15.62-.28.91-.39a.9.9,0,0,1,.7,0l.14.32V61.17c0,.27.17.42.5.46a10.13,10.13,0,0,0,1.12,0,8,8,0,0,1,1.11,0c.34,0,.5.2.5.5V77a.41.41,0,0,0,.46.46,7.78,7.78,0,0,0,3.05-.52,9.55,9.55,0,0,0,2.55-1.8.5.5,0,0,1,.36-.19c1.79,0,3.57,0,5.33-.16s3.54-.16,5.33-.16q.58,0,.63.39a7.3,7.3,0,0,1,.05.84,2.57,2.57,0,0,0,.14.85c.09.25.38.39.86.39.18,0,.55,0,1.09-.12a14.84,14.84,0,0,0,1.67-.32,8.82,8.82,0,0,0,1.5-.48q.66-.27.66-.63V64.77a.69.69,0,0,1,.25-.48c.16-.17.23-.31.2-.43l-.09-.1s0-.07,0-.13L499.9,63c-.43-.28-.86-.59-1.3-.94a12,12,0,0,1-1.14-1,1.41,1.41,0,0,1-.48-.82.45.45,0,0,1,.25-.41,1,1,0,0,1,.48-.14.73.73,0,0,1,.52.16,1.87,1.87,0,0,1,.28.35,1.28,1.28,0,0,0,.29.33.8.8,0,0,0,.55.16,7.75,7.75,0,0,0,1-.09,11.56,11.56,0,0,0,1.47-.29,9.17,9.17,0,0,0,1.35-.48c.39-.18.59-.41.59-.68V56.73c0-.59,0-1.21,0-1.84s0-1.23,0-1.78,0-1,0-1.36a2.12,2.12,0,0,1,.07-.6,5.68,5.68,0,0,1,1.07-.91,3.13,3.13,0,0,0,1-1c.3-.48.58-1,.82-1.39s.48-.87.73-1.3a10.51,10.51,0,0,1,.84-1.25,6.41,6.41,0,0,1,1.21-1.16l.09-.18A.8.8,0,0,0,509.27,43.69Zm-30.82,7.46a.4.4,0,0,1,.46-.45h6.69a.4.4,0,0,1,.46.45v7.29a.4.4,0,0,1-.46.45h-6.69a.4.4,0,0,1-.46-.45ZM494.57,73.6a.4.4,0,0,1-.46.45h-11.2l-.31-.13-.05,0-.14-.32c0-.6,0-1.23,0-1.86a12.88,12.88,0,0,1,0-1.87c0-.12.09-.27.16-.46a1.18,1.18,0,0,0,.12-.36.91.91,0,0,0-.14-.52.74.74,0,0,1-.14-.39V64.17a.4.4,0,0,1,.46-.45h11.24a.4.4,0,0,1,.46.45Zm1.5-12.89-2,2-.32.14h-11a4.79,4.79,0,0,1-1.11-.18,9.38,9.38,0,0,1-1.41-.48,4.84,4.84,0,0,1-1.23-.71,1.15,1.15,0,0,1-.53-.91.75.75,0,0,1,.19-.5.56.56,0,0,1,.45-.23h16.66c.21,0,.34.14.37.42S496.13,60.66,496.07,60.71Zm2.42-2.27a.4.4,0,0,1-.46.45h-4.78a.28.28,0,0,1-.32-.32c0-.09.23-.38.71-.86s1-1,1.57-1.52,1.12-1,1.64-1.46a2.81,2.81,0,0,1,.95-.66c.12,0,.27.11.43.34a1.06,1.06,0,0,1,.26.52Zm-.05-5.94a.59.59,0,0,1-.55.34,3.28,3.28,0,0,1-1-.16c-.34-.11-.67-.23-1-.37l-1-.38a2.56,2.56,0,0,0-.89-.18c-.25,0-.44.37-.6,1.11s-.3,1.57-.45,2.46-.32,1.72-.52,2.46-.45,1.11-.75,1.11a.72.72,0,0,1-.48-.2.56.56,0,0,1-.25-.43V51c0-.24.1-.38.29-.41a2.47,2.47,0,0,1,.71,0c.27,0,.54.11.8.18a2.15,2.15,0,0,0,.61.12.73.73,0,0,0,.41-.12.72.72,0,0,1,.36-.11h4.1c.12,0,.22.11.3.34a2.48,2.48,0,0,1,.11.73A1.55,1.55,0,0,1,498.44,52.5ZM237.55,94.43H182V92.69h55.52Zm268.66,0H450.7V92.69h55.51Z"/></svg>