<svg id="圖層_1" data-name="圖層 1" xmlns="http://www.w3.org/2000/svg" xmlns:xlink="http://www.w3.org/1999/xlink" viewBox="0 0 1200 1600"><defs><style>.cls-1{fill:url(#未命名漸層_157);}.cls-2{fill:url(#未命名漸層_157-2);}.cls-3{fill:#fff;}.cls-4{fill:url(#未命名漸層_2);}</style><radialGradient id="未命名漸層_157" cx="-5454.2" cy="510.43" r="208.95" gradientTransform="matrix(-1.35, 0, 0, 1.84, -6555.12, -310.85)" gradientUnits="userSpaceOnUse"><stop offset="0" stop-color="#b21848"/><stop offset="0.03" stop-color="#ae1847"/><stop offset="0.48" stop-color="#721434"/><stop offset="0.81" stop-color="#4c1128"/><stop offset="0.98" stop-color="#3e1023"/></radialGradient><radialGradient id="未命名漸層_157-2" cx="600" cy="1041.27" r="579.73" gradientTransform="matrix(1, 0, 0, 1, 0, 0)" xlink:href="#未命名漸層_157"/><radialGradient id="未命名漸層_2" cx="-4516.88" cy="978.78" r="118.58" gradientTransform="translate(-5462.15 2104.99) rotate(180) scale(1.27 1.83)" gradientUnits="userSpaceOnUse"><stop offset="0" stop-color="#ac1848"/><stop offset="0.45" stop-color="#721434"/><stop offset="0.8" stop-color="#4c1128"/><stop offset="0.98" stop-color="#3e1023"/></radialGradient></defs><path class="cls-1" d="M1200,698.09V572.75s-180.39,217.94-689-.53C325.63,492.6,451,698.09,451,698.09Z"/><path class="cls-2" d="M576.45,597.35C403.37,515,268.48,430.84,0,522.13V1600H1200V696.09H1013.77A1017.82,1017.82,0,0,1,576.45,597.35Z"/><polygon class="cls-3" points="59.78 700 194.64 699.27 329.49 698.85 599.2 698.5 868.91 698.85 1003.76 699.27 1138.62 700 1003.76 700.73 868.91 701.15 599.2 701.5 329.49 701.15 194.64 700.73 59.78 700"/><rect class="cls-4" x="59.78" y="286.07" width="423.43" height="63.93" rx="31.97"/></svg>