<svg id="圖層_1" data-name="圖層 1" xmlns="http://www.w3.org/2000/svg" xmlns:xlink="http://www.w3.org/1999/xlink" viewBox="0 0 800 150"><defs><style>.cls-1{fill:#fff;}.cls-2{fill:url(#未命名漸層_157);}</style><radialGradient id="未命名漸層_157" cx="399.6" cy="73.97" r="186.53" gradientUnits="userSpaceOnUse"><stop offset="0" stop-color="#b21848"/><stop offset="0.03" stop-color="#ae1847"/><stop offset="0.48" stop-color="#721434"/><stop offset="0.81" stop-color="#4c1128"/><stop offset="0.98" stop-color="#3e1023"/></radialGradient></defs><rect class="cls-1" y="15" width="800" height="120" rx="59.48"/><path class="cls-2" d="M182.86,49.79a1.9,1.9,0,0,1,1.35.55,1.82,1.82,0,0,1,.58,1.38V92.59a12.8,12.8,0,0,1-.5,4,3.73,3.73,0,0,1-1.87,2.18q-1.93,1.15-6.28,1.26a2.14,2.14,0,0,1-1.46-.55,2.61,2.61,0,0,1-.85-1.38c-.22-1-.48-1.92-.77-2.8a1.29,1.29,0,0,1,.16-1.22,1.1,1.1,0,0,1,1.05-.49h1.65a12.81,12.81,0,0,0,1.43-.06,1,1,0,0,0,.75-.22,1.21,1.21,0,0,0,.19-.77V68.35c0-.18-.08-.27-.22-.27H169.2v0a.6.6,0,0,1,.36.41.6.6,0,0,1-.08.53q-2.1,2.54-3.69,4.24a.23.23,0,0,0,.05.38,10,10,0,0,1,.88.88q.22.18.39,0,.82-1,1.59-2a2.4,2.4,0,0,1,1.33-.88,2.35,2.35,0,0,1,1.59.11l.06.06a1.36,1.36,0,0,1,.44,2.2q-2.7,2.86-5.07,5.07a.09.09,0,0,0,0,.11.11.11,0,0,0,.09,0l3.41-.27c.15,0,.18-.08.11-.22a3.08,3.08,0,0,0-.16-.28,1.43,1.43,0,0,1-.09-1.24,1.25,1.25,0,0,1,.86-.8,2.36,2.36,0,0,1,1.51.06,2.09,2.09,0,0,1,1.13.93A19.44,19.44,0,0,1,175.59,81a1.75,1.75,0,0,1-.08,1.43,1.77,1.77,0,0,1-1.13.94l-.33.11a1.33,1.33,0,0,1-1.08-.14,1.7,1.7,0,0,1-.74-.85.21.21,0,0,0-.28-.17c-1,.11-4.33.41-10,.88a.65.65,0,0,1-.77-.55s0,0-.06,0l-2.53.82v.06a.64.64,0,0,1,.47.19.69.69,0,0,1,.19.52V88.9a17.69,17.69,0,0,1-.22,3,11.46,11.46,0,0,1-.85,2.7,8,8,0,0,1-2,2.59,12.57,12.57,0,0,1-3.3,2.06,2.13,2.13,0,0,1-1.57.06,2.87,2.87,0,0,1-1.35-1c-.15-.19-.3-.37-.44-.56a1.14,1.14,0,0,1-.28-1.12,1.31,1.31,0,0,1,.77-.91,7.84,7.84,0,0,0,3.53-2.54c.11-.14.07-.22-.11-.22h-4.19a2,2,0,0,1-2-2V86.42a2,2,0,0,1,2-2h.17a2,2,0,0,1,2,2V89a.2.2,0,0,0,.22.22h2.92a.2.2,0,0,0,.22-.22V85.43a1.82,1.82,0,0,1,.58-1.35,1.88,1.88,0,0,1,1.4-.58h1.1c.19,0,.26-.07.22-.22a4.69,4.69,0,0,1-.22-.77.24.24,0,0,0-.33-.22c-3,.29-6.22.57-9.64.82a1.93,1.93,0,0,1-1.37-.41,1.61,1.61,0,0,1-.66-1.24,1.55,1.55,0,0,1,.35-1.29,1.66,1.66,0,0,1,1.19-.64l1.15,0a.91.91,0,0,0,.45-.22c.07-.08.62-.61,1.65-1.6a.27.27,0,0,0,0-.39,33.24,33.24,0,0,0-3.2-3.08,1.63,1.63,0,0,1-.63-1.16,1.59,1.59,0,0,1,.36-1.26l.11-.17a1.46,1.46,0,0,1,1-.58,1.62,1.62,0,0,1,1.16.31c.07.07.14,0,.22-.06,1.1-1.73,1.72-2.72,1.87-3s0-.22-.11-.22h-7.6c-.15,0-.22.09-.22.27v30a1.89,1.89,0,0,1-.58,1.35,1.92,1.92,0,0,1-1.41.58h-2.53a1.85,1.85,0,0,1-1.35-.58,1.89,1.89,0,0,1-.58-1.35V51.72a1.86,1.86,0,0,1,.58-1.38,1.9,1.9,0,0,1,1.35-.55H157a1.87,1.87,0,0,1,1.35.55,1.82,1.82,0,0,1,.58,1.38V66.15a1.78,1.78,0,0,1-.58,1.37,1.87,1.87,0,0,1-1.35.56h-1.49s0,0,0,0a.6.6,0,0,1,.36.41.6.6,0,0,1-.08.53c-2.1,2.49-3.31,3.91-3.64,4.24-.11.15-.11.27,0,.38l.94.88a.2.2,0,0,0,.33,0c.58-.69,1.15-1.39,1.7-2.09a2.24,2.24,0,0,1,1.27-.85,2.35,2.35,0,0,1,1.54.14,1.27,1.27,0,0,1,.75,1,1.29,1.29,0,0,1-.31,1.18Q155.48,77,153.34,79s-.05.08,0,.11,0,.06.08.06l2.7-.22c.15,0,.18-.06.11-.17a1.35,1.35,0,0,1,0-1.13,1.33,1.33,0,0,1,.82-.8H157a2.33,2.33,0,0,1,1.43,0,1.79,1.79,0,0,1,1,.91,13.86,13.86,0,0,1,1,1.93.05.05,0,0,1,.06-.06l1.48-.11a.45.45,0,0,0,.34-.11c.77-.7,1.35-1.26,1.76-1.71.14-.14.16-.27.05-.38a45.24,45.24,0,0,0-3.47-3.42,1.46,1.46,0,0,1-.58-1.13,1.64,1.64,0,0,1,.42-1.18l.22-.22a1.68,1.68,0,0,1,1-.5,1.59,1.59,0,0,1,1.11.33.17.17,0,0,0,.27,0c.48-.7,1.1-1.65,1.87-2.86.08-.15,0-.22-.16-.22h-.39a1.91,1.91,0,0,1-1.35-.56,1.81,1.81,0,0,1-.57-1.37V51.72a1.85,1.85,0,0,1,.57-1.38,1.9,1.9,0,0,1,1.35-.55Zm-30.29,4.74a.2.2,0,0,0-.22-.23h-8.54c-.15,0-.22.08-.22.23v2.14c0,.19.07.28.22.28h8.54c.14,0,.22-.09.22-.28ZM143.81,61c-.15,0-.22.09-.22.28v2.09a.19.19,0,0,0,.22.22h8.54a.2.2,0,0,0,.22-.22V61.25c0-.19-.08-.28-.22-.28Zm30.46,30a2,2,0,0,1-2,2h-5.5c-.19,0-.28.08-.28.22v4a2,2,0,0,1-.55,1.41,1.86,1.86,0,0,1-1.38.58h-.66a2,2,0,0,1-2-2V85.43a1.82,1.82,0,0,1,.58-1.35,1.88,1.88,0,0,1,1.4-.58h.66a1.82,1.82,0,0,1,1.38.58,1.87,1.87,0,0,1,.55,1.35V89c0,.14.09.22.28.22h3c.18,0,.28-.08.28-.22V86.42A2,2,0,0,1,170.6,85a1.89,1.89,0,0,1,1.35-.58h.33a2,2,0,0,1,2,2Zm4-36.46a.2.2,0,0,0-.22-.23h-8.81c-.19,0-.28.08-.28.23v2.14a.24.24,0,0,0,.28.28h8.81c.14,0,.22-.09.22-.28ZM169,63.34c0,.15.09.22.28.22h8.81a.2.2,0,0,0,.22-.22V61.25c0-.19-.08-.28-.22-.28h-8.81a.24.24,0,0,0-.28.28Zm45.43,4.85c0,.18.07.27.22.27h8.54a1.93,1.93,0,0,1,1.4.55,1.68,1.68,0,0,1,.53,1.38v.71q-.28,14.22-.64,19.64c-.24,3.62-.7,5.92-1.4,6.91a6.08,6.08,0,0,1-3.8,2.37,20.07,20.07,0,0,1-3.91.28h-.17a2,2,0,0,1-1.43-.58,3,3,0,0,1-.83-1.4,12.27,12.27,0,0,0-.66-2.37,1.22,1.22,0,0,1,.17-1.16,1.05,1.05,0,0,1,1-.5q1,.06,2.37.06H216a1.56,1.56,0,0,0,1.44-.88q1-1.55,1.37-18.67c0-.19-.09-.28-.27-.28h-4.13c-.15,0-.22.09-.22.28a78.94,78.94,0,0,1-2.1,14,31.23,31.23,0,0,1-4.62,10.38,1.29,1.29,0,0,1-1.16.58,1.46,1.46,0,0,1-1.16-.63A19.66,19.66,0,0,0,203,96.88a2,2,0,0,1-.72-1.32v-.27a1.83,1.83,0,0,1,.39-1.16,25.65,25.65,0,0,0,2.86-6.06,40,40,0,0,0,1.63-7.74q.53-4.38.69-8.12c.11-2.5.18-5.69.22-9.59a.2.2,0,0,0-.22-.22h-3.31a1.85,1.85,0,0,1-1.35-.58,1.92,1.92,0,0,1-.58-1.4V58.16a1.92,1.92,0,0,1,.58-1.4,1.85,1.85,0,0,1,1.35-.58h6.61c.18,0,.28-.08.28-.22V49.62a1.78,1.78,0,0,1,.58-1.37,1.87,1.87,0,0,1,1.34-.56h2.76a1.94,1.94,0,0,1,1.4.56,1.78,1.78,0,0,1,.58,1.37V56a.2.2,0,0,0,.22.22h6.78a1.78,1.78,0,0,1,1.37.58,1.94,1.94,0,0,1,.56,1.4v2.26a1.94,1.94,0,0,1-.56,1.4,1.78,1.78,0,0,1-1.37.58H214.85c-.18,0-.27.09-.27.28C214.5,65.25,214.45,67.08,214.41,68.19Zm21.21-18.84a2.72,2.72,0,0,1,1-1.35,2.52,2.52,0,0,1,1.57-.53h2.65a2.81,2.81,0,0,1,1.57.5,2.5,2.5,0,0,1,1,1.32A58,58,0,0,0,248,58.66a25.31,25.31,0,0,0,5.7,6.66,2.35,2.35,0,0,1,.83,1.32,3.24,3.24,0,0,1,.05.5,2.54,2.54,0,0,1-.22,1c-.51,1-1.05,2-1.6,3.3a1.38,1.38,0,0,1-1,.85,1.34,1.34,0,0,1-1.26-.24,33.22,33.22,0,0,1-6.28-7.52,48.43,48.43,0,0,1-4.52-9.17.05.05,0,0,0-.06-.06.17.17,0,0,0-.11.06,47.38,47.38,0,0,1-4.4,9.14,33.57,33.57,0,0,1-6.23,7.6,1.23,1.23,0,0,1-.82.33,1.48,1.48,0,0,1-.39,0,1.34,1.34,0,0,1-1-.88,31.27,31.27,0,0,0-1.38-2.87,2.48,2.48,0,0,1-.27-1.1,1.65,1.65,0,0,1,.05-.44,2.51,2.51,0,0,1,.77-1.38,29.06,29.06,0,0,0,5.59-7.24A50.08,50.08,0,0,0,235.62,49.35Zm-5.46,40a1.79,1.79,0,0,1-.85-1.1,1.42,1.42,0,0,1,.3-1.33l1.6-2.09a2.68,2.68,0,0,1,1.38-.88,2.38,2.38,0,0,1,1.6.11,83.08,83.08,0,0,1,15.86,9.14,2,2,0,0,1,.72,1.32,1.86,1.86,0,0,1-.45,1.49l-2.09,2.76a1.58,1.58,0,0,1-1.21.66.59.59,0,0,1-.22,0,1.75,1.75,0,0,1-1.21-.49A81.19,81.19,0,0,0,230.16,89.34Zm16.09-13.61a1.92,1.92,0,0,1,.58,1.43,1.88,1.88,0,0,1-.64,1.38l-2,2A1.6,1.6,0,0,1,243,81h-.17a1.81,1.81,0,0,1-1.26-.61,43.81,43.81,0,0,0-6.78-6.11,1.56,1.56,0,0,1-.66-1.18,1.59,1.59,0,0,1,.5-1.3l1.54-1.54a2.49,2.49,0,0,1,3-.28A50.51,50.51,0,0,1,246.25,75.73Zm66.64-2.2a2.23,2.23,0,0,1,1.21-1,2,2,0,0,1,1.54,0l2.31,1a1.7,1.7,0,0,1,1,1.08,1.53,1.53,0,0,1-.19,1.4,56.67,56.67,0,0,1-8.21,10.47.37.37,0,0,0-.05.44c1.58,4.44,3.19,6.66,4.85,6.66q1.59,0,2-7.38a.87.87,0,0,1,.58-.8,1,1,0,0,1,1,.14,14.27,14.27,0,0,0,2.36,1.65,2.67,2.67,0,0,1,1.55,2.37,1.61,1.61,0,0,1-.06.44q-.82,6.06-2.59,8.24t-5.45,2.17q-5.73,0-9.58-8.7c-.08-.15-.19-.16-.34-.05a58.94,58.94,0,0,1-8.48,5.78,2,2,0,0,1-1.57.22,2.37,2.37,0,0,1-1.29-.88c-.63-.85-1.29-1.65-2-2.43a1.4,1.4,0,0,1-.34-1.21,1.25,1.25,0,0,1,.78-1,57.88,57.88,0,0,0,10.57-7,.33.33,0,0,0,.17-.39,103.34,103.34,0,0,1-2.81-14.6c0-.18-.09-.27-.28-.27h-11c-.15,0-.22.09-.22.27v5.9c0,.18.07.25.22.22l3.64-.66c1.57-.3,2.53-.46,2.86-.5a1.69,1.69,0,0,1,2.09,1.6l.22,2.15a2.24,2.24,0,0,1-.44,1.54,2.1,2.1,0,0,1-1.32.82l-7.05,1.44a.25.25,0,0,0-.22.27v9.42a10.34,10.34,0,0,1-.69,4.24A4.87,4.87,0,0,1,285.35,99c-1.66.8-4.37,1.23-8.16,1.26a2.41,2.41,0,0,1-1.54-.52,2.52,2.52,0,0,1-.88-1.35,28.76,28.76,0,0,0-1.1-3.14,1.17,1.17,0,0,1,1.16-1.65h2.75q1.55,0,2.7-.06a1.77,1.77,0,0,0,1.07-.24,1.14,1.14,0,0,0,.31-.91V84.43c0-.18-.1-.25-.28-.22l-7.93,1.6a1.89,1.89,0,0,1-1.46-.27,2.1,2.1,0,0,1-.91-1.22l-.72-3a2.2,2.2,0,0,1-.05-.44,1.6,1.6,0,0,1,.33-1,1.67,1.67,0,0,1,1.21-.77q5.89-.95,9.53-1.6c.18,0,.28-.13.28-.28v-7a.25.25,0,0,0-.28-.27H273a1.88,1.88,0,0,1-1.4-.58A1.85,1.85,0,0,1,271,68V65.54a2,2,0,0,1,2-2h8.43c.18,0,.28-.07.28-.22v-6c0-.15-.1-.22-.28-.22-1.95.33-4.22.66-6.83,1a1.94,1.94,0,0,1-1.49-.39,2.65,2.65,0,0,1-.93-1.26c-.19-.63-.41-1.27-.66-1.93a1.49,1.49,0,0,1,.08-1.35,1.41,1.41,0,0,1,1.07-.74,146.41,146.41,0,0,0,18.62-3.91,3.94,3.94,0,0,1,.94-.11,2.63,2.63,0,0,1,2.14,1.1l2.1,2.59a1.41,1.41,0,0,1,.19,1.24,1.14,1.14,0,0,1-.91.85q-3,.82-7.05,1.65a.3.3,0,0,0-.22.33v7.11a.19.19,0,0,0,.22.22H299a.2.2,0,0,0,.22-.22q-.5-5.73-.61-13.28a1.68,1.68,0,0,1,.52-1.35,2,2,0,0,1,1.41-.57h3.14a2,2,0,0,1,1.93,1.92,5.09,5.09,0,0,0-.06.77q0,6.12.61,12.51c0,.15.09.22.27.22h13.11a2,2,0,0,1,2,2V68a1.88,1.88,0,0,1-.57,1.35,1.92,1.92,0,0,1-1.41.58H307.1c-.14,0-.22.09-.22.27q.66,4.8,1.55,9l.11.08s.07,0,.11,0A59.45,59.45,0,0,0,312.89,73.53Zm7.05-17A1.84,1.84,0,0,1,320.3,58a1.75,1.75,0,0,1-.86,1.24l-2.2,1.54a1.67,1.67,0,0,1-1.43.33,1.89,1.89,0,0,1-1.22-.82,49,49,0,0,0-5.5-6.34,1.45,1.45,0,0,1-.5-1.26,1.43,1.43,0,0,1,.66-1.16l1.87-1.27a2.45,2.45,0,0,1,3.09.22A58.28,58.28,0,0,1,319.94,56.56Zm53-.49c0,.14,0,.22.17.22h13.71a1.8,1.8,0,0,1,1.38.6,1.84,1.84,0,0,1,.55,1.33v1.15q-.61,19.73-1.32,27.35t-2.37,9.78a7.38,7.38,0,0,1-2.34,2.15,10.58,10.58,0,0,1-3.06,1c-1,.11-2.5.16-4.41.16h-2.53a2,2,0,0,1-1.4-.58,2.81,2.81,0,0,1-.86-1.4,17.37,17.37,0,0,0-.93-2.92,1,1,0,0,1,.05-1.07.93.93,0,0,1,.94-.47c1.91.11,4.07.16,6.5.16a3.5,3.5,0,0,0,2.48-.93q1.16-1.32,1.81-8.07t1.16-21.9c0-.14-.09-.22-.28-.22H370.66a.36.36,0,0,0-.33.22,53.06,53.06,0,0,1-3.75,7.05,1.69,1.69,0,0,1-1.24.77,1.8,1.8,0,0,1-1.4-.33c-.63-.47-1.51-1.08-2.65-1.81-.11-.11-.16-.08-.16.11V92.53a2,2,0,0,1-.58,1.41,1.93,1.93,0,0,1-1.41.57H346.31c-.18,0-.27.08-.27.22v1.93a1.88,1.88,0,0,1-.56,1.38,1.83,1.83,0,0,1-1.37.55H341.9a1.9,1.9,0,0,1-1.35-.55,1.85,1.85,0,0,1-.57-1.38v-38a1.85,1.85,0,0,1,.57-1.38,1.9,1.9,0,0,1,1.35-.55h4.19a.31.31,0,0,0,.33-.28,57,57,0,0,0,1.32-6.88,1.92,1.92,0,0,1,.77-1.32,1.75,1.75,0,0,1,1.11-.39.54.54,0,0,1,.27.06l3.47.44a1.53,1.53,0,0,1,1.16.77,1.66,1.66,0,0,1,.16,1.37q-1.15,3.31-2.2,6c-.07.19,0,.28.17.28h6.49a2,2,0,0,1,1.41.55,1.86,1.86,0,0,1,.58,1.38V65.6a.1.1,0,0,0,.05.08s.06,0,.06,0a53.75,53.75,0,0,0,7-16.08,2.05,2.05,0,0,1,.91-1.21,1.8,1.8,0,0,1,1.52-.22l2.53.55a2,2,0,0,1,1.24.91,1.72,1.72,0,0,1,.19,1.45Q374,53.15,373,56.07ZM354.79,71.71c.15,0,.22-.09.22-.27v-8.6c0-.18-.07-.27-.22-.27h-8.48a.24.24,0,0,0-.27.27v8.6a.24.24,0,0,0,.27.27ZM346,88.35c0,.14.09.22.27.22h8.48a.2.2,0,0,0,.22-.22V77.77c0-.18-.07-.28-.22-.28h-8.48a.25.25,0,0,0-.27.28Zm32.44-8a1.73,1.73,0,0,1,.27.93,2.65,2.65,0,0,1-.05.56,2.08,2.08,0,0,1-.94,1.21l-2.37,1.43a1.66,1.66,0,0,1-.88.28,1.83,1.83,0,0,1-.49-.06,1.85,1.85,0,0,1-1.16-.94q-2-3.8-5.89-9.64a2,2,0,0,1-.28-1,1.72,1.72,0,0,1,.06-.44,1.63,1.63,0,0,1,.88-1.15l1.82-1a1.83,1.83,0,0,1,1-.33,2.57,2.57,0,0,1,.5,0,2.38,2.38,0,0,1,1.32.88Q376.33,76.79,378.48,80.36Zm74.29.33a1.88,1.88,0,0,1-.58,1.4,1.81,1.81,0,0,1-1.34.58H434.93c-.19,0-.3.08-.33.22a18.75,18.75,0,0,1-3.86,7.44c-.11.11-.09.18.06.22a47.15,47.15,0,0,0,10.79,2q5.9.5,14.54.49h.5a.93.93,0,0,1,.88.55,1.1,1.1,0,0,1,.17.55,1,1,0,0,1-.17.55,14.67,14.67,0,0,0-1.32,3.09,2.88,2.88,0,0,1-.94,1.35,2.31,2.31,0,0,1-1.49.52,145.24,145.24,0,0,1-16.33-1.26,50.13,50.13,0,0,1-12.2-3.25.43.43,0,0,0-.44,0A49.69,49.69,0,0,1,411.63,100a3.51,3.51,0,0,1-.55,0,2.16,2.16,0,0,1-1.05-.27,2.85,2.85,0,0,1-1.27-1.1,26.09,26.09,0,0,0-1.87-2.76,1.46,1.46,0,0,1-.22-.74,1.15,1.15,0,0,1,.94-1.08,55.09,55.09,0,0,0,10.57-2.92q.22-.11.06-.27a26.21,26.21,0,0,1-4.46-4.57,1.47,1.47,0,0,1-.25-1.32,1.43,1.43,0,0,1,.91-1l3.08-1.26s0,0,0-.06h-3.8a1.82,1.82,0,0,1-1.38-.58,2,2,0,0,1-.55-1.4V61.41a1.94,1.94,0,0,1,.55-1.35,1.86,1.86,0,0,1,1.38-.58h14.49a.24.24,0,0,0,.27-.27V56.4c0-.19-.09-.28-.27-.28H408.82a2,2,0,0,1-1.41-.55,1.84,1.84,0,0,1-.58-1.38V52.1a1.89,1.89,0,0,1,.58-1.35,2,2,0,0,1,1.41-.58h45.5a1.93,1.93,0,0,1,1.4.58,1.85,1.85,0,0,1,.58,1.35v2.09a1.81,1.81,0,0,1-.58,1.38,2,2,0,0,1-1.4.55H435.75c-.14,0-.22.09-.22.28v2.81c0,.18.08.27.22.27h15.1a2,2,0,0,1,1.92,1.93ZM418.35,64.88a.24.24,0,0,0-.28.28v3.08a.25.25,0,0,0,.28.28h9.86a.25.25,0,0,0,.27-.28V65.16c0-.19-.09-.28-.27-.28Zm0,8.65c-.19,0-.28.07-.28.22v3.19c0,.15.09.22.28.22h9.8c.18,0,.28-.07.28-.22,0-.36.05-.91.05-1.65V73.75c0-.15-.09-.22-.27-.22Zm9,9.36c0-.14,0-.22-.17-.22H418.9c-.19,0-.22.06-.11.17a21.5,21.5,0,0,0,5.12,4.57.27.27,0,0,0,.39,0A13.13,13.13,0,0,0,427.33,82.89Zm18.56-5.73a.2.2,0,0,0,.22-.22V73.75a.2.2,0,0,0-.22-.22H435.75a.2.2,0,0,0-.22.22v1.6c0,.69,0,1.23,0,1.59a.19.19,0,0,0,.22.22Zm.22-12c0-.19-.08-.28-.22-.28H435.75c-.14,0-.22.09-.22.28v3.08c0,.18.08.28.22.28h10.14c.14,0,.22-.1.22-.28Zm72.48,7.1a2.17,2.17,0,0,1,.66-.11,2.93,2.93,0,0,1,1.32.33l1.76.94a2,2,0,0,1,1.16,1.82,1.68,1.68,0,0,1-.22.82,35.19,35.19,0,0,1-6.56,9.64,37.16,37.16,0,0,1-9.25,7,61,61,0,0,1-11,4.57,89.84,89.84,0,0,1-12.78,2.81,1.89,1.89,0,0,1-.38,0,2,2,0,0,1-1.16-.38,2.62,2.62,0,0,1-1.05-1.21c-.36-.89-.77-1.77-1.21-2.65a1.83,1.83,0,0,1-.14-.8,1.16,1.16,0,0,1,.36-.74,1.06,1.06,0,0,1,.77-.33A70.6,70.6,0,0,0,500.68,89q.22-.11,0-.27a51.31,51.31,0,0,0-7.87-5.62.43.43,0,0,0-.44,0,61.62,61.62,0,0,1-6,2.59,2.35,2.35,0,0,1-1.57,0,2.59,2.59,0,0,1-1.29-1,17.07,17.07,0,0,0-1.71-2.14,1.18,1.18,0,0,1-.28-1.13,1.21,1.21,0,0,1,.78-.86q13.77-4.51,21-12.22s0-.06,0-.06q-9.92,6.45-24.07,9.53a2,2,0,0,1-1.55-.19,2.4,2.4,0,0,1-1.1-1.19,22.59,22.59,0,0,0-1.26-2.31,1.59,1.59,0,0,1-.17-.72,1.41,1.41,0,0,1,.11-.49,1.06,1.06,0,0,1,.88-.77A72.37,72.37,0,0,0,492.92,67a.16.16,0,0,0,.11-.13.18.18,0,0,0-.06-.14,57.57,57.57,0,0,0-7.16-4.57.43.43,0,0,0-.44,0c-1.4.73-2.88,1.43-4.46,2.09a2.64,2.64,0,0,1-1.6,0,2.48,2.48,0,0,1-1.38-.93,18.25,18.25,0,0,0-1.87-2,1.27,1.27,0,0,1-.33-1.1,1,1,0,0,1,.72-.83q11.28-4,17.62-10.46a3.49,3.49,0,0,1,2.48-1.16,2.87,2.87,0,0,1,.77.11l3.47.72a1,1,0,0,1,.83.74,1,1,0,0,1-.22,1.07c-.4.44-.81.87-1.21,1.27,0,0-.05.07,0,.11a.09.09,0,0,0,.08.06h11.13a1.91,1.91,0,0,1,.66-.11,2.32,2.32,0,0,1,1.27.38l1.7,1a1.78,1.78,0,0,1,.91,1.19,1.89,1.89,0,0,1-.19,1.46,38.82,38.82,0,0,1-10.46,11.07.12.12,0,0,0,0,.14s0,.08.08.08l4.63,1.1a1,1,0,0,1,.85.74,1.09,1.09,0,0,1-.25,1.13c-.62.7-1.3,1.4-2,2.1a.08.08,0,0,0,0,.11.09.09,0,0,0,.08.05h10Zm-12-14.71a.08.08,0,0,0,0-.11.1.1,0,0,0-.08,0h-13a1,1,0,0,0-.44.11c-.26.22-.83.62-1.71,1.21a.18.18,0,0,0-.06.14s0,.08.11.08a42,42,0,0,1,7.33,4.68.33.33,0,0,0,.44,0A35,35,0,0,0,506.63,57.55Zm7.93,20.5c.11-.12.08-.17-.11-.17H501.67a1.06,1.06,0,0,0-.44.11c-.84.59-1.69,1.14-2.53,1.65-.07,0-.11.09-.11.14s0,.1.11.14a44.12,44.12,0,0,1,8,5.45.27.27,0,0,0,.39,0A27.12,27.12,0,0,0,514.56,78.05ZM586.21,88.9a1.95,1.95,0,0,1-1.92,1.92h-7.55s0,0,0,0v.08q7.42,2.59,14.1,5.68a.72.72,0,0,1,.46.77.81.81,0,0,1-.52.77l-4.13,1.54a3.88,3.88,0,0,1-1.54.33,4.35,4.35,0,0,1-2-.55,101.48,101.48,0,0,0-11.13-5,.91.91,0,0,1-.55-.8.82.82,0,0,1,.44-.85l3.2-1.88c0-.07,0-.11-.06-.11H559a.05.05,0,0,0-.06.06s0,.05.06.05L562,92.31a1,1,0,0,1,.11,1.76,68.88,68.88,0,0,1-14,5.84,3.12,3.12,0,0,1-1,.17,3,3,0,0,1-2.21-1c-.77-.77-1.5-1.49-2.2-2.15a1,1,0,0,1-.28-1,.91.91,0,0,1,.78-.68,58.84,58.84,0,0,0,13.38-4.25c0-.07,0-.11-.05-.11h-6.06a2,2,0,0,1-1.41-.57,1.89,1.89,0,0,1-.58-1.35v-19a2,2,0,0,1,2-2h9.58c.15,0,.18-.07.11-.22a15.26,15.26,0,0,0-2.53-3.64.21.21,0,0,1-.17.28l-12.23,3.52a2.19,2.19,0,0,1-2.64-1.26l-.94-2.26a1.36,1.36,0,0,1,.06-1.38,1.51,1.51,0,0,1,1.1-.82q4.08-.83,12.34-2.76a1.56,1.56,0,0,1,1.4.25,1.81,1.81,0,0,1,.75,1.24l.33,2.86c0,.19.09.26.27.22,4.12-.69,7.12-1.64,9-2.83a8.85,8.85,0,0,0,3.83-4.77c.07-.18,0-.27-.17-.27H567a.46.46,0,0,0-.38.22,33.28,33.28,0,0,1-2.87,3,2.25,2.25,0,0,1-1.49.55,2.67,2.67,0,0,1-1.54-.5c-.51-.36-1.08-.73-1.71-1.1a1.07,1.07,0,0,1-.66-.94,1.28,1.28,0,0,1,.44-1.1,23.13,23.13,0,0,0,5.84-6.88,2.87,2.87,0,0,1,1.21-1.16,3,3,0,0,1,1.22-.27h.38l2.09.33a1.5,1.5,0,0,1,1.05.79,1.36,1.36,0,0,1,0,1.3l-.44.77c-.11.15-.07.22.11.22h15.48a15.84,15.84,0,0,1,3.8.33l.66.17a1.42,1.42,0,0,1,1.07.85,1.49,1.49,0,0,1,0,1.35A43.87,43.87,0,0,1,588,59.32a3,3,0,0,1-1.41.93,2.55,2.55,0,0,1-1.68,0l-1.48-.49a1.33,1.33,0,0,1-.89-.88,1.37,1.37,0,0,1,.22-1.27l.89-1.32c.07-.15,0-.22-.11-.22h-5.79c-.18,0-.24.09-.16.27a8.68,8.68,0,0,0,1.95,3.14A12.87,12.87,0,0,0,583.79,62a33.08,33.08,0,0,0,7.55,1.87,1,1,0,0,1,.82.66.9.9,0,0,1,.11.44,1,1,0,0,1-.22.66,20.55,20.55,0,0,0-1.26,2.2A3.09,3.09,0,0,1,589.6,69a2.26,2.26,0,0,1-1.57.25c-.59-.11-1.1-.22-1.54-.33-.18,0-.28,0-.28.16ZM556.42,51.72a1.66,1.66,0,0,1,.93,1.07,1.71,1.71,0,0,1-.16,1.4l-1.05,1.71a2,2,0,0,1-1.18,1,2,2,0,0,1-1.57-.14,81.85,81.85,0,0,0-8.16-3.14,1.43,1.43,0,0,1-1-.91,1.37,1.37,0,0,1,.14-1.29l.82-1.27a2.68,2.68,0,0,1,1.3-1.08,2.64,2.64,0,0,1,1.62-.08C551.13,49.81,553.88,50.72,556.42,51.72ZM555.2,71.93c-.14,0-.22.09-.22.28v1.92a.2.2,0,0,0,.22.22h24a.19.19,0,0,0,.22-.22V72.21c0-.19-.07-.28-.22-.28Zm0,6.23a.2.2,0,0,0-.22.22V80.3c0,.19.08.28.22.28h24c.15,0,.22-.09.22-.28V78.38a.19.19,0,0,0-.22-.22Zm0,6.16c-.14,0-.22.1-.22.28v2a.2.2,0,0,0,.22.22h24a.19.19,0,0,0,.22-.22v-2c0-.18-.07-.28-.22-.28Zm9.2-16.47v.06h18.4s.05,0,.05-.06A17.38,17.38,0,0,1,574.59,62a.21.21,0,0,0-.33,0Q571.35,65.82,564.4,67.85ZM627.74,57a2,2,0,0,1,1.4.55,1.82,1.82,0,0,1,.58,1.38v1.37a2,2,0,0,1-2,2H610.22a1.89,1.89,0,0,1-1.35-.58,1.92,1.92,0,0,1-.58-1.41V58.88a1.82,1.82,0,0,1,.58-1.38,1.9,1.9,0,0,1,1.35-.55Zm2.42-5.18a1.82,1.82,0,0,1,.58-1.38,2,2,0,0,1,1.4-.55h21.21a1.88,1.88,0,0,1,1.93,1.93q-.22,7.38-.22,13.88,0,8,.33,14.65.5,12.18,2.31,12.62c.15,0,.29-.48.44-1.55s.26-2.46.33-4.18a.6.6,0,0,1,.47-.55.52.52,0,0,1,.63.27c.55.88,1,1.64,1.49,2.26a5.2,5.2,0,0,1,1,2.87,3.64,3.64,0,0,1,0,.6q-1.21,7.71-5.13,7.71a5.08,5.08,0,0,1-2.09-.49,4.15,4.15,0,0,1-1.68-1.16,7.64,7.64,0,0,1-1.32-2.23,27.16,27.16,0,0,1-1-2.92,29.15,29.15,0,0,1-.77-3.83c-.22-1.54-.41-3-.58-4.35s-.3-3.06-.41-5.09-.2-3.84-.25-5.4-.1-3.55-.14-5.95-.06-4.44-.08-6.09,0-3.78,0-6.39a.24.24,0,0,0-.27-.27h-5.9a.24.24,0,0,0-.27.27v12a.25.25,0,0,0,.27.28h3.09a1.88,1.88,0,0,1,1.92,1.92V73a1.87,1.87,0,0,1-.55,1.38,1.83,1.83,0,0,1-1.37.55h-3.25a.24.24,0,0,0-.28.28,55.61,55.61,0,0,1-2.5,12.94,29.62,29.62,0,0,1-6.31,10.74,1.48,1.48,0,0,1-1.27.58,1.84,1.84,0,0,1-1.32-.63A18,18,0,0,0,628,96.5c-.07-.08-.11-.08-.11,0a.84.84,0,0,1-.22.58.72.72,0,0,1-.55.24H616.66c-.18,0-.27.08-.27.22a1.92,1.92,0,0,1-.58,1.41,1.89,1.89,0,0,1-1.35.58H612.7a1.86,1.86,0,0,1-1.35-.58,1.92,1.92,0,0,1-.58-1.41V82.23a1.82,1.82,0,0,1,.58-1.38,1.91,1.91,0,0,1,1.35-.55H626a1.91,1.91,0,0,1,1.35.55,1.82,1.82,0,0,1,.58,1.38v11.9s0,.06.06.08.07,0,.11,0q6.33-7.05,7.38-18.94c0-.19-.08-.28-.22-.28h-3.75a1.9,1.9,0,0,1-1.35-.55,1.86,1.86,0,0,1-.58-1.38V70.66a1.82,1.82,0,0,1,.58-1.37,1.9,1.9,0,0,1,1.35-.55h4c.14,0,.22-.1.22-.28v-12c0-.18-.08-.27-.22-.27h-3.31a2,2,0,0,1-1.4-.55,1.82,1.82,0,0,1-.58-1.38Zm-4.24,13a2,2,0,0,1,1.93,1.93V68a2,2,0,0,1-1.93,1.92H612.86A2,2,0,0,1,610.94,68V66.7a2,2,0,0,1,1.92-1.93ZM612.86,77.49a1.9,1.9,0,0,1-1.35-.55,1.81,1.81,0,0,1-.57-1.37V74.46a1.92,1.92,0,0,1,.57-1.4,1.85,1.85,0,0,1,1.35-.58h13.06a1.85,1.85,0,0,1,1.35.58,1.93,1.93,0,0,1,.58,1.4v1.11a1.82,1.82,0,0,1-.58,1.37,1.9,1.9,0,0,1-1.35.55Zm12.89-28.14a1.82,1.82,0,0,1,1.35.58,1.88,1.88,0,0,1,.58,1.4v1.16a1.88,1.88,0,0,1-.58,1.4,1.82,1.82,0,0,1-1.35.58H613a1.82,1.82,0,0,1-1.35-.58,1.88,1.88,0,0,1-.58-1.4V51.33a1.88,1.88,0,0,1,.58-1.4,1.82,1.82,0,0,1,1.35-.58ZM622,92.09a.25.25,0,0,0,.28-.27v-6c0-.14-.1-.22-.28-.22h-5.29c-.18,0-.27.08-.27.22v6a.24.24,0,0,0,.27.27Z"/></svg>