<svg id="圖層_1" data-name="圖層 1" xmlns="http://www.w3.org/2000/svg" xmlns:xlink="http://www.w3.org/1999/xlink" viewBox="0 0 250 250"><defs><style>.cls-1{fill:#fff;}.cls-2{fill:url(#未命名漸層_157);}.cls-3{stroke:#fff;stroke-miterlimit:10;stroke-width:2px;fill:url(#未命名漸層_157-2);}</style><radialGradient id="未命名漸層_157" cx="125" cy="105.12" r="48.28" gradientUnits="userSpaceOnUse"><stop offset="0" stop-color="#b21848"/><stop offset="0.03" stop-color="#ae1847"/><stop offset="0.48" stop-color="#721434"/><stop offset="0.81" stop-color="#4c1128"/><stop offset="0.98" stop-color="#3e1023"/></radialGradient><radialGradient id="未命名漸層_157-2" cx="-12.01" cy="183.58" r="58.34" gradientTransform="translate(137.1) scale(1.01 1)" xlink:href="#未命名漸層_157"/></defs><circle class="cls-1" cx="125" cy="99.92" r="80"/><path class="cls-2" d="M174.33,95.7v4.82c-.05.27-.13.55-.16.83a31.9,31.9,0,0,1-3.4,11.64c-2.89,5.73-7.08,10.45-11.71,14.78a155.29,155.29,0,0,1-22,16.84c-3.77,2.43-7.68,4.63-11.59,6.83a8.12,8.12,0,0,1-3,.87c-1.18.16-1.81-.48-1.83-1.69a20,20,0,0,1,.25-2.29c.23-2.19.51-4.38.67-6.58a2.82,2.82,0,0,0-1.91-2.94,19.78,19.78,0,0,0-2.91-.95c-3.34-.79-6.75-1.31-10-2.34-9.58-3.05-17.83-8.23-23.83-16.44-7.78-10.66-9.5-22.26-4.24-34.51,3.85-9,10.62-15.32,19.09-19.9,11.19-6,23.15-7.86,35.68-6.14A51.78,51.78,0,0,1,161.1,70.77a37.37,37.37,0,0,1,12.15,19.09C173.75,91.77,174,93.76,174.33,95.7Zm-40,5.23-.2.07c-1.16-1.58-2.32-3.15-3.47-4.73-2.11-2.86-4.2-5.75-6.34-8.6-1.33-1.78-3.7-1.56-4.48.39a3.09,3.09,0,0,0-.2,1.13q0,9.72,0,19.44a3.88,3.88,0,0,0,0,.48,2.52,2.52,0,0,0,2.49,2.23,2.55,2.55,0,0,0,2.6-2.82c0-3.53,0-7.06,0-10.59V97a2.49,2.49,0,0,1,.86.8l8.86,12.11c1,1.31,2,1.74,3.19,1.36s1.83-1.39,1.83-3V94.63c0-1.77,0-3.53,0-5.3a2.65,2.65,0,0,0-2.59-2.87,2.62,2.62,0,0,0-2.59,2.85c0,1,0,2,0,3Zm13.87-9.28c2.39,0,4.73,0,7.06,0a2.6,2.6,0,1,0,0-5.19q-4.82,0-9.62,0a2.53,2.53,0,0,0-2.66,2.67q0,9.77,0,19.54a2.49,2.49,0,0,0,2.64,2.67c3.21,0,6.42,0,9.63,0a3.27,3.27,0,0,0,1.67-.56,2.45,2.45,0,0,0,.85-2.84,2.54,2.54,0,0,0-2.51-1.75c-2,0-4,0-6.06,0-.34,0-.68,0-1-.05v-4.59h1.09c2,0,4.05,0,6.07,0a2.56,2.56,0,0,0,2.45-3.26,2.6,2.6,0,0,0-2.67-1.93h-7Zm-49.64,14.5V95.41c0-2.15,0-4.3,0-6.44a2.5,2.5,0,0,0-2.42-2.51,2.57,2.57,0,0,0-2.68,2.35,9.21,9.21,0,0,0,0,1q0,9,0,18.08a7.48,7.48,0,0,0,.09,1.34,2.38,2.38,0,0,0,2.24,2q5.15.07,10.29,0a2.44,2.44,0,0,0,2.33-2.37,2.52,2.52,0,0,0-2-2.68,7.59,7.59,0,0,0-1.43-.11C102.8,106.14,100.72,106.15,98.52,106.15Zm17.35-7.22v-.58c0-3.11,0-6.23,0-9.34a2.5,2.5,0,0,0-2.19-2.53,2.53,2.53,0,0,0-2.74,1.65,5.08,5.08,0,0,0-.18,1.51q0,9.24,0,18.49a7.72,7.72,0,0,0,0,1,2.49,2.49,0,0,0,2.55,2.25,2.56,2.56,0,0,0,2.54-2.79C115.88,105.34,115.87,102.13,115.87,98.93Z"/><rect class="cls-3" x="45" y="161.18" width="160" height="44.81" rx="22.4"/><path class="cls-1" d="M80.2,172.79h5.73v19h9.24v4.8h-15Z"/><path class="cls-1" d="M104.84,173a3.27,3.27,0,1,1,3.26,2.91A3,3,0,0,1,104.84,173Zm.42,5.44h5.66V196.6h-5.66Z"/><path class="cls-1" d="M121.93,178.39h4.64l.38,2.27h.13a8.23,8.23,0,0,1,5.82-2.72c4,0,5.67,2.85,5.67,7.39V196.6h-5.7V186c0-2.5-.67-3.23-2.11-3.23-1.28,0-2,.57-3.17,1.63V196.6h-5.66Z"/><path class="cls-1" d="M148.36,187.51c0-5.92,4.22-9.57,8.64-9.57,5.25,0,7.81,3.81,7.81,8.8a10.15,10.15,0,0,1-.26,2.43H153.86c.52,2.5,2.24,3.52,4.55,3.52a7.41,7.41,0,0,0,3.84-1.15l1.88,3.42a11.69,11.69,0,0,1-6.52,2.08C152.39,197,148.36,193.53,148.36,187.51Zm11.62-2c0-1.82-.81-3.17-2.89-3.17-1.56,0-2.94,1-3.32,3.17Z"/></svg>