<svg id="圖層_1" data-name="圖層 1" xmlns="http://www.w3.org/2000/svg" xmlns:xlink="http://www.w3.org/1999/xlink" viewBox="0 0 250 250"><defs><style>.cls-1{fill:#fff;}.cls-2{fill:url(#未命名漸層_157);}.cls-3{stroke:#fff;stroke-miterlimit:10;stroke-width:2px;fill:url(#未命名漸層_157-2);}</style><radialGradient id="未命名漸層_157" cx="125" cy="99.94" r="47.21" gradientUnits="userSpaceOnUse"><stop offset="0" stop-color="#b21848"/><stop offset="0.03" stop-color="#ae1847"/><stop offset="0.48" stop-color="#721434"/><stop offset="0.81" stop-color="#4c1128"/><stop offset="0.98" stop-color="#3e1023"/></radialGradient><radialGradient id="未命名漸層_157-2" cx="-68.8" cy="183.6" r="58.34" gradientTransform="translate(194.32) scale(1.01 1)" xlink:href="#未命名漸層_157"/></defs><circle class="cls-1" cx="125" cy="99.94" r="80"/><path class="cls-2" d="M146.76,147.16a47.84,47.84,0,0,1-6.67-1.67c-8.21-3.31-13.14-9.41-14.74-18.14a22.5,22.5,0,0,1,1.1-11.88c.14-.38.37-.74-.19-1.08-4.83-2.94-9.63-5.91-14.43-8.86a19.68,19.68,0,1,1,1.42-25.15c.17-.07.37-.12.56-.2q9.31-4.31,18.65-8.6a.86.86,0,0,0,.59-1.11,15.71,15.71,0,1,1,16.81,13.64A15.34,15.34,0,0,1,137,78.94c-.31-.33-.54-.57-1.07-.32-6.35,2.95-12.7,5.87-19.06,8.81a2,2,0,0,0-.26.19c.14.95.32,1.92.41,2.89a18,18,0,0,1-.92,7.53c-.15.45-.23.76.28,1.07,4.8,2.93,9.58,5.88,14.4,8.85,1-.89,1.92-1.82,2.92-2.66a23.57,23.57,0,0,1,38.34,15.6c0,.27.11.53.16.8v3.69c-.11.66-.22,1.32-.34,2-1.62,8.68-6.51,14.77-14.67,18.09a47.28,47.28,0,0,1-6.75,1.7Z"/><rect class="cls-3" x="45" y="161.2" width="160" height="44.81" rx="22.4"/><path class="cls-1" d="M63,193.64l3.23-3.93a9.71,9.71,0,0,0,5.8,2.43c2.11,0,3.1-.8,3.1-2.08s-1.31-1.83-3.36-2.69l-3-1.28c-2.5-1-4.83-3.07-4.83-6.53,0-4,3.58-7.2,8.64-7.2a11.08,11.08,0,0,1,7.74,3.14l-2.85,3.58a7.74,7.74,0,0,0-4.89-1.82c-1.76,0-2.85.7-2.85,2s1.5,1.83,3.62,2.66l3,1.18c3,1.18,4.71,3.17,4.71,6.53,0,4-3.33,7.45-9.09,7.45A13.34,13.34,0,0,1,63,193.64Z"/><path class="cls-1" d="M90.94,171.05H96.6v6.14l-.26,3.24a8.11,8.11,0,0,1,5.57-2.47c4,0,5.67,2.85,5.67,7.39v11.27h-5.7V186.06c0-2.5-.67-3.23-2.11-3.23-1.28,0-2,.57-3.17,1.63v12.16H90.94Z"/><path class="cls-1" d="M117.59,191.53c0-3.84,3-5.92,10.11-6.69-.12-1.47-.89-2.34-2.75-2.34a10,10,0,0,0-4.77,1.61l-2-3.75A15.14,15.14,0,0,1,126,178c4.7,0,7.36,2.62,7.36,8.32v10.34h-4.64l-.42-1.83h-.13a7.72,7.72,0,0,1-5.21,2.27A5.25,5.25,0,0,1,117.59,191.53Zm10.11-.32V188.3c-3.55.48-4.7,1.5-4.7,2.78,0,1.06.77,1.57,2,1.57A3.6,3.6,0,0,0,127.7,191.21Z"/><path class="cls-1" d="M144.18,178.41h4.64l.39,3.17h.13c1.34-2.43,3.36-3.62,5.18-3.62a5.06,5.06,0,0,1,2.21.39l-1,4.89a7.45,7.45,0,0,0-2-.29c-1.34,0-3,.87-3.93,3.27v10.4h-5.67Z"/><path class="cls-1" d="M164,187.53c0-5.92,4.23-9.57,8.64-9.57,5.25,0,7.81,3.81,7.81,8.8a10.15,10.15,0,0,1-.26,2.43H169.53c.51,2.5,2.24,3.52,4.54,3.52a7.39,7.39,0,0,0,3.84-1.15L179.8,195a11.74,11.74,0,0,1-6.53,2.08C168.05,197.06,164,193.54,164,187.53Zm11.62-2.05c0-1.82-.8-3.17-2.88-3.17-1.57,0-2.95,1-3.33,3.17Z"/></svg>