<svg id="圖層_1" data-name="圖層 1" xmlns="http://www.w3.org/2000/svg" xmlns:xlink="http://www.w3.org/1999/xlink" viewBox="0 0 550 120"><defs><style>.cls-1{fill:url(#未命名漸層_105);}.cls-2{fill:url(#未命名漸層_105-2);}.cls-3{fill:url(#未命名漸層_105-3);}.cls-4{fill:url(#未命名漸層_105-4);}.cls-5{fill:url(#未命名漸層_105-5);}.cls-6{fill:url(#未命名漸層_105-6);}.cls-7{fill:url(#未命名漸層_105-7);}</style><linearGradient id="未命名漸層_105" x1="24.62" y1="60" x2="331.31" y2="60" gradientUnits="userSpaceOnUse"><stop offset="0" stop-color="#a71c46"/><stop offset="0.44" stop-color="#711534"/><stop offset="0.8" stop-color="#4b1027"/><stop offset="0.98" stop-color="#3d0e22"/></linearGradient><linearGradient id="未命名漸層_105-2" x1="420.72" y1="57.66" x2="485.43" y2="57.66" xlink:href="#未命名漸層_105"/><linearGradient id="未命名漸層_105-3" x1="355.11" y1="57.69" x2="413.4" y2="57.69" xlink:href="#未命名漸層_105"/><linearGradient id="未命名漸層_105-4" x1="493.97" y1="34.92" x2="513.44" y2="34.92" xlink:href="#未命名漸層_105"/><linearGradient id="未命名漸層_105-5" x1="493.96" y1="61.61" x2="513.83" y2="61.61" xlink:href="#未命名漸層_105"/><linearGradient id="未命名漸層_105-6" x1="518.26" y1="86.6" x2="525.38" y2="86.6" xlink:href="#未命名漸層_105"/><linearGradient id="未命名漸層_105-7" x1="520.5" y1="86.67" x2="523.3" y2="86.67" xlink:href="#未命名漸層_105"/></defs><path class="cls-1" d="M52.07,25.63a22.85,22.85,0,0,0-17.4-6.54c-10.67.4-13.9,13.67-4.52,18.4,17.56,8.86,29.6,21.82,32.44,36.75h0C69.28,58,64.53,37.62,52.07,25.63ZM80.7,43.12a12.29,12.29,0,0,0-2.62-.52,40.69,40.69,0,0,1-10,26.85C74.53,65,92,49.44,80.7,43.12Zm-5.33-.55C76.45,31.72,67,20.13,55.88,26.73c10.1,11.5,14.16,29.09,9.5,44A41,41,0,0,0,75.37,42.57Zm-15.72,50c15.08-16,60.62,13.3,64-34.31,0,0-16.83,16.81-40.41,21.17C62.51,83.3,59.65,92.6,59.65,92.6Zm12.9.41c12.7,11.86,28.4,4.69,31.92-3.68-11.62,2.58-36.58-4-42,2.62A15.16,15.16,0,0,1,72.55,93Zm4.82,6.22M58.75,109.31S50.12,86.6,74.53,79.8c23.28-6.49,75.07-22.37,46.9-69.11C113.72,63.3,33,69.33,58.75,109.31Zm203.5-19.93a4.64,4.64,0,0,0-1.56-1,6,6,0,0,0-1.93-.3,4.26,4.26,0,0,0-3.26,1.19,4.13,4.13,0,0,0-1.19,3.19,4.51,4.51,0,0,0,1.11,3.2,4.29,4.29,0,0,0,3.12,1.18,6.05,6.05,0,0,0,1.93-.44,6.64,6.64,0,0,0,1.78-1v2.75a8.56,8.56,0,0,1-1.78.66,6.68,6.68,0,0,1-2,.3,7.41,7.41,0,0,1-5.05-1.86,7,7,0,0,1,0-9.5,6.89,6.89,0,0,1,5.12-1.85,9.15,9.15,0,0,1,2.08.22,14.7,14.7,0,0,1,1.78.67Zm2.07,9.35V86.11H267v5.12h5.49V86.11h2.68V98.73h-2.68V93.46H267v5.27ZM284.9,86.11h-3.11l-4.68,12.62h2.82l.89-2.67h4.9l1,2.67h3ZM281.56,94l1.34-4.08a2.45,2.45,0,0,1,.15-.6c.05-.29.12-.66.22-1.11.1.45.17.79.22,1a4.68,4.68,0,0,0,.15.67L285.05,94Zm16.88-7a5.46,5.46,0,0,0-3.64-.89h-3V98.73h2.67V94h.74a5.2,5.2,0,0,0,3.34-1.11A4,4,0,0,0,299.7,90,3.52,3.52,0,0,0,298.44,87Zm-2,4.38a2.63,2.63,0,0,1-1.63.45h-.37V88.12h.37a2.34,2.34,0,0,1,1.63.37A1.76,1.76,0,0,1,297,89.9,1.83,1.83,0,0,1,296.43,91.38Zm11-3V98.73H304.7V88.41h-3.05v-2.3h8.91v2.3Zm5,10.32V86.11h7.42v2.3h-4.75V91h4.75v2.3h-4.75v3.2h4.75v2.22Zm15-5.71a3.18,3.18,0,0,0,1.93-1.12,3.64,3.64,0,0,0,.82-2.22A3.15,3.15,0,0,0,329,87a5.3,5.3,0,0,0-3.34-.89h-3.86V98.73h2.67V92.87l3.34,5.86H331Zm-.59-1.79a5.53,5.53,0,0,1-2,.3h-.37V88.19h.37a4,4,0,0,1,2,.3,1.51,1.51,0,0,1,.74,1.41A1.42,1.42,0,0,1,326.87,91.23ZM161.93,86.05l-3.46,12.68h-2.36l-2.64-8.24-2.65,8.24H148.5L145,86.05h2.7l2.09,7.88,2.52-7.88h2.32l2.53,7.88,2.12-7.88ZM167,98.73h-2.69V86H167Zm13.58,0h-2.53l-5.14-7.93v7.93h-2.7V86h2.61l5.1,7.89V86h2.66Zm12.85-.77a10,10,0,0,1-4.84,1,5.33,5.33,0,0,1-4.51-2.11,7.21,7.21,0,0,1-1.36-4.46A7.34,7.34,0,0,1,184,88a5.21,5.21,0,0,1,4.46-2.13,5,5,0,0,1,3.42,1.09,4.61,4.61,0,0,1,1.45,3.55h-2.7a2.71,2.71,0,0,0-.6-1.75,2.19,2.19,0,0,0-1.57-.48,2.57,2.57,0,0,0-2.28,1.33,5.29,5.29,0,0,0-.72,2.83q0,4.15,3.57,4.16a5.36,5.36,0,0,0,1.7-.27V93.88h-3V91.46h5.65Zm12-2.88q0,3.93-5.27,3.93a4.19,4.19,0,0,1-3.27-1.28,5.08,5.08,0,0,1-1.19-3.52h2.78a2.78,2.78,0,0,0,.51,1.88,2.2,2.2,0,0,0,1.64.49,2.33,2.33,0,0,0,1.43-.4,1.23,1.23,0,0,0,.57-1.06c0-.38-.33-.71-1-1l-2.27-.83A7.59,7.59,0,0,1,197,92,2.94,2.94,0,0,1,196,89.68a3.4,3.4,0,0,1,1.42-2.85,4.89,4.89,0,0,1,3.12-1,5,5,0,0,1,3.26,1,4.26,4.26,0,0,1,1.42,3.38h-2.74c0-1.29-.65-1.93-1.79-1.93a2.51,2.51,0,0,0-1.36.34,1.07,1.07,0,0,0-.53.93,1.19,1.19,0,0,0,.77,1c.08,0,.52.2,1.32.49a18.38,18.38,0,0,1,3,1.3A3.11,3.11,0,0,1,205.4,95.06ZM217.31,90q0,3.94-5.61,4h-1.06v4.78H208V86h3.66Q217.31,86,217.31,90Zm-2.8,0c0-1-.73-1.53-2.21-1.53h-1.66v3h1.66C213.78,91.49,214.51,91,214.51,90ZM231,98.73h-2.87l-1.36-3H222l-1.34,3h-2.89L223.28,86h2.15Zm-5.27-5.5-1.32-3.17L223,93.23ZM243,98.71h-2.54l-5.13-7.93v7.93h-2.71V86h2.61l5.1,7.89V86H243Zm-98-52.2c0-.3.13-.45.41-.45a11,11,0,0,1,2.11.24,10.52,10.52,0,0,1,2.3.76,5.67,5.67,0,0,1,1.85,1.32,2.79,2.79,0,0,1,.75,1.95,2.82,2.82,0,0,1-.78,2,2.59,2.59,0,0,1-1.95.82,2.32,2.32,0,0,1-1.55-.8,10.51,10.51,0,0,1-1.53-1.89,13,13,0,0,1-1.16-2.21A5.07,5.07,0,0,1,145,46.51Zm13.34-3.82.09.22a.63.63,0,0,1,0,.28c-.58,1.76-1.18,3.52-1.82,5.28s-1.22,3.54-1.75,5.35a55.2,55.2,0,0,0-1.32,5.44,29.32,29.32,0,0,0-.53,5.55,8.78,8.78,0,0,0,.25,2c.17.67.35,1.33.55,2s.38,1.31.55,2a8.78,8.78,0,0,1,.25,2.05v.93a4.48,4.48,0,0,1-.09.94A2.77,2.77,0,0,1,153,76.51a4.8,4.8,0,0,1-2.25.6,3.42,3.42,0,0,1-1.89-.51,1.88,1.88,0,0,1-.8-1.73,19.26,19.26,0,0,1,.12-2.09c.07-.73.14-1.46.2-2.19a17.36,17.36,0,0,0,0-2.16,7.52,7.52,0,0,0-.37-2,2.67,2.67,0,0,0-.68-1.15c-.25-.2-.61-.45-1.09-.76-.16-.06-.23-.15-.23-.27s.11-.14.32-.23l.7-.29.78-.3a1.52,1.52,0,0,0,.52-.27,7.07,7.07,0,0,0,1.32-1.8c.52-.89,1-1.87,1.53-2.94s1-2.1,1.39-3.12.74-1.78,1-2.3c.27-.72.58-1.56.91-2.5s.69-1.89,1.07-2.84.77-1.87,1.18-2.74a13,13,0,0,1,1.3-2.2.26.26,0,0,1,.14-.09Zm-9.93-6.51c0-.31.12-.46.36-.46a18.46,18.46,0,0,1,2.37.18,10.28,10.28,0,0,1,2.6.69A6.2,6.2,0,0,1,155.82,38a3,3,0,0,1,.87,2.23,2.51,2.51,0,0,1-2.64,2.64A2.71,2.71,0,0,1,152.5,42a15.44,15.44,0,0,1-1.87-1.91,16.33,16.33,0,0,1-1.57-2.21A3.81,3.81,0,0,1,148.4,36.18ZM156.78,65l1.16,0c.53,0,1.11,0,1.75,0s1.31,0,2,0h2l1.57.05a6.47,6.47,0,0,1,.89.06.91.91,0,0,1-.28.19.69.69,0,0,1-.27.09h-8.83l-.19-.18Zm29.32.14c-.4-.43-.85-.86-1.35-1.3a13.08,13.08,0,0,0-1.48-1.14,2.42,2.42,0,0,0-1-.48,1.81,1.81,0,0,0-.64.39l-1,.84-1,.84a1.64,1.64,0,0,1-.61.39h-4.51c-.33,0-.48-.15-.43-.46a3.8,3.8,0,0,1,.32-1c.16-.38.35-.75.54-1.11a2.35,2.35,0,0,0,.3-.69.26.26,0,0,0-.14-.25l-.27-.11a10,10,0,0,0-1.39-.25c-.59-.08-1.2-.17-1.82-.28a12.66,12.66,0,0,1-1.71-.4,1.9,1.9,0,0,1-1-.67.71.71,0,0,1,.09-.31.28.28,0,0,1,.27-.19h10.2a.28.28,0,0,1,.29.16.94.94,0,0,1,.07.39c0,.15,0,.3,0,.43a2.3,2.3,0,0,0,0,.35.46.46,0,0,0,.5.52l.86,0c.19,0,.51,0,1-.07a13.67,13.67,0,0,0,1.41-.2,5.82,5.82,0,0,0,1.28-.39c.38-.17.57-.37.57-.61V48.88a.51.51,0,0,1,.16-.32,1.8,1.8,0,0,1,.38-.34l.46-.32a3.15,3.15,0,0,0,.36-.3c0-.15-.22-.43-.68-.84s-1-.83-1.53-1.25-1.11-.82-1.66-1.18a5.8,5.8,0,0,0-1.09-.64,2.54,2.54,0,0,0-.77.61c-.31.32-.6.65-.89,1s-.56.64-.82.91-.47.41-.61.41h-1.42l-.77,0a2.64,2.64,0,0,0-.5.07,1,1,0,0,0,.84.39c.41,0,.84,0,1.28,0a8.69,8.69,0,0,1,1.16,0c.33,0,.5.18.5.46V57.8a.41.41,0,0,1-.46.46c-.15,0-.42,0-.82,0l-1.25,0-1.21,0c-.36,0-.57-.05-.63-.12a1.1,1.1,0,0,1-.21-.81c0-.4,0-.7,0-.91,0-2.28-.05-4.53-.15-6.77s-.16-4.48-.16-6.76a.9.9,0,0,1,.5-.77.88.88,0,0,1,.32-.14c.18-.06.37-.11.59-.16l.59-.13.41-.12c.42-.12,1-.26,1.8-.43s1.56-.36,2.37-.59,1.55-.47,2.25-.73a4.08,4.08,0,0,0,1.45-.8l-.09-.22-.86-.89-1.34-1.39-1.3-1.3a9.7,9.7,0,0,0-.73-.66,2.35,2.35,0,0,0-.82.64c-.3.33-.63.68-1,1s-.7.67-1.05,1a1.54,1.54,0,0,1-1,.43h-16.8l-.32.14-.09.14.09.22.16,0a.45.45,0,0,0,.16,0h16.39l.31.19.1.27-.1.27-.59.57c-.3.29-.63.59-1,.89s-.66.58-.95.82a1.43,1.43,0,0,1-.57.36,10.17,10.17,0,0,1-1.82-.16q-.91-.15-1.8-.36c-.59-.14-1.19-.26-1.8-.37a11.17,11.17,0,0,0-1.82-.15c-.12,0-.18.07-.18.22l.13.32,1,1q.78.75,1.62,1.59c.56.57,1.06,1.08,1.5,1.55a2.87,2.87,0,0,1,.66.85.65.65,0,0,1-.22.59,1.3,1.3,0,0,1-.64.13,11.74,11.74,0,0,1-3.48-.54c-1.17-.37-2.29-.76-3.35-1.19-.58-.24-1.19-.48-1.84-.72a5.38,5.38,0,0,0-1.94-.37.4.4,0,0,0-.45.46q0,4.23.16,8.37c.1,2.76.16,5.56.16,8.38,0,.24.09.38.27.41a3.31,3.31,0,0,0,.55.05,4.83,4.83,0,0,0,2.18-.44,7.25,7.25,0,0,0,1.48-.95c.41-.35.77-.67,1.07-1a1.41,1.41,0,0,1,1-.43,1.38,1.38,0,0,1,1.27.57,2.46,2.46,0,0,1,.37,1.39,9.54,9.54,0,0,1-.32,2.43,9.67,9.67,0,0,0-.32,2.44,2.45,2.45,0,0,1-.38,1c-.26.46-.59,1-1,1.53S165,69.39,164.49,70s-1,1.19-1.43,1.73-.88,1-1.28,1.44-.69.7-.9.88-.36.26-.71.48l-1.09.71c-.38.24-.73.47-1,.68s-.45.36-.45.46,0,.09.13.11a1,1,0,0,0,.23,0,10.25,10.25,0,0,0,3.64-.7A19.79,19.79,0,0,0,165.22,74a27.78,27.78,0,0,0,3.28-2.46,31.61,31.61,0,0,0,2.66-2.62,3.67,3.67,0,0,0,.55-.8c.15-.29.3-.57.43-.86s.28-.57.44-.85a3.17,3.17,0,0,1,.59-.77,10.84,10.84,0,0,1,1.23-.16l1.75-.11,1.77-.07,1.35,0c.21,0,.33.08.36.25a2.7,2.7,0,0,1,.05.48c0,.36,0,.85-.09,1.48a11.13,11.13,0,0,1-.37,1.86,5.5,5.5,0,0,1-.75,1.62,1.44,1.44,0,0,1-1.21.68h-3.82l-.14.14.09.22a13.3,13.3,0,0,1,1.87,1.51,4.55,4.55,0,0,1,1.05,2.14,3.59,3.59,0,0,1,.07.45,2.2,2.2,0,0,0,.34,1,.42.42,0,0,0,.36.2,3,3,0,0,0,.89-.13c.29-.09.57-.17.84-.23a8.08,8.08,0,0,0,3.64-2,8.68,8.68,0,0,0,2.05-3.64,6.17,6.17,0,0,0,.23-1c.06-.36.13-.73.2-1.11l.23-1.07a4,4,0,0,1,.3-.87,1.65,1.65,0,0,1,.25-.32l.41-.43.39-.39c.12-.12.18-.19.18-.22C186.69,65.81,186.49,65.51,186.1,65.09Zm-20.49-6.83a.84.84,0,0,1-.52-.28.72.72,0,0,1-.3-.5v-10a.4.4,0,0,1,.45-.45h4a.4.4,0,0,1,.45.45V57.8a.4.4,0,0,1-.45.46Zm3-5.92.09.09-.14.09c-.27,0-.68,0-1.22,0a1.49,1.49,0,0,1-1.1-.22c0-.09.09-.15.28-.19a5.57,5.57,0,0,1,.63,0c.24,0,.47,0,.68,0a2.65,2.65,0,0,0,.46.05Zm8-.14h1.73l.32.14.08.13a1.35,1.35,0,0,1-.45.07c-.24,0-.52,0-.82,0s-.58,0-.84,0a1.07,1.07,0,0,1-.44-.07l.1-.13Zm16.84,17h1.18c.58,0,1.25,0,2,0l2.39,0,2.3,0c.69,0,1.29,0,1.77,0a3.41,3.41,0,0,1,.82,0,.93.93,0,0,1-.34.18,1.29,1.29,0,0,1-.39.09h-9.74l-.18-.18Zm.23-23.4c.36,0,.87-.1,1.52-.2s1.33-.23,2-.37a15.15,15.15,0,0,0,2-.5,3.93,3.93,0,0,0,1.27-.61l.09-.23a2.14,2.14,0,0,0-.61-1.11,15.12,15.12,0,0,0-1.14-1.12c-.41-.37-.78-.72-1.12-1.07a1.53,1.53,0,0,1-.5-1c0-.1.06-.16.18-.19a3.87,3.87,0,0,1,.43-.07l.48,0h.31a12.18,12.18,0,0,1,1.29.07,5,5,0,0,1,1.31.3,2.73,2.73,0,0,1,1,.68,1.87,1.87,0,0,1,.15,2.18,1.62,1.62,0,0,0-.27.69.42.42,0,0,0,.32.45,2,2,0,0,0,.76,0c.3,0,.58-.07.86-.12a5.36,5.36,0,0,1,.61-.07c.12,0,.18,0,.18.14s-.29.51-.86,1-1.25,1-2,1.48l-2.18,1.48c-.7.47-1.16.8-1.37,1s-.54.43-.79.66a3.72,3.72,0,0,1-.85.57l-.27-.09c-.15-.19-.38-.45-.68-.8s-.61-.71-.91-1.09-.59-.74-.85-1.07a5.15,5.15,0,0,1-.52-.78Zm10.51,18.53a7.65,7.65,0,0,1-1.34.16c-.71,0-1.48.08-2.3.11s-1.61.06-2.36.07l-1.6,0a.29.29,0,0,1-.32-.32.28.28,0,0,1,.32-.32h6.88a1.25,1.25,0,0,1,.4.07A.51.51,0,0,1,204.12,64.31Zm2-8.28c0-.1.08-.15.23-.16l.32,0c.12,0,.31,0,.57,0l.79,0a6.35,6.35,0,0,1,.78,0,.81.81,0,0,1,.5.19.24.24,0,0,1-.18.11l-.23,0a6,6,0,0,0-.62.05,7.17,7.17,0,0,1-.84,0,6.82,6.82,0,0,1-.82,0A.87.87,0,0,1,206.08,56Zm9.11,8.14c0,.1-.09.15-.25.16l-.34,0c-.16,0-.35,0-.57,0l-.71,0a4.88,4.88,0,0,1-.68,0,.73.73,0,0,1-.46-.19c0-.09.12-.14.34-.16l.44,0,1.18,0A1.54,1.54,0,0,1,215.19,64.17Zm6.28-20.94a.8.8,0,0,0,.55.19,3.9,3.9,0,0,0,.66-.07l.68-.16a2.43,2.43,0,0,1,.61-.09,1.24,1.24,0,0,1,.25,0c.11,0,.16.07.16.16s-.07.16-.2.29l-.3.3q-.18.18-.75.66l-1.32,1.12L220.22,47c-.56.45-1.1.87-1.6,1.25s-.93.69-1.29.93a1.87,1.87,0,0,1-.69.36c-.06,0-.25-.18-.59-.54s-.69-.77-1.07-1.21-.72-.86-1-1.25a2.13,2.13,0,0,1-.46-.73c0-.15.22-.29.66-.43a15.35,15.35,0,0,1,1.53-.39l1.64-.34a4.55,4.55,0,0,0,1-.3.78.78,0,0,0,.3-1.09,7.14,7.14,0,0,0-.86-1.48c-.39-.5-.76-1-1.12-1.36s-.55-.68-.55-.8.3-.4.89-.48a6.26,6.26,0,0,1,1.91.09,5.12,5.12,0,0,1,1.89.8,1.88,1.88,0,0,1,.87,1.64,2.45,2.45,0,0,1-.14.8A1.76,1.76,0,0,0,221.47,43.23ZM217.78,56c0-.1.09-.15.27-.16l.37,0c.12,0,.33,0,.61,0l.91,0a8.2,8.2,0,0,1,.89,0,.9.9,0,0,1,.55.19c0,.06-.13.09-.39.11l-.48,0-.59,0c-.27,0-.56,0-.86,0a6.56,6.56,0,0,1-.82-.05A.89.89,0,0,1,217.78,56ZM229,77.11a4.23,4.23,0,0,1-1.28-.39c-.61-.26-1.3-.59-2.09-1s-1.61-.83-2.46-1.3-1.63-.92-2.35-1.37-1.29-.82-1.75-1.13-.68-.54-.68-.66a.23.23,0,0,1,.25-.25l.39,0L221,71c.85,0,1.8.06,2.83.13s2.08.19,3.16.35a17.77,17.77,0,0,1,2.94.65,7,7,0,0,1,2.16,1.1,2,2,0,0,1,.84,1.61,1.44,1.44,0,0,1-.43,1.07,3.2,3.2,0,0,1-1,.69,6.08,6.08,0,0,1-1.3.36A7.93,7.93,0,0,1,229,77.11Zm4.6-7.47c.3,0,.45-.14.45-.41a2.72,2.72,0,0,0-.82-.84l-1.32-1a13.11,13.11,0,0,1-1.23-1.07,1.52,1.52,0,0,1-.55-1,.54.54,0,0,1,.26-.45,2.17,2.17,0,0,1,.59-.3,4.18,4.18,0,0,1,.68-.16,4.12,4.12,0,0,1,.52,0l.14-.19-.14-.22c-.66-.49-1.31-1-1.93-1.5s-1.22-1.07-1.8-1.64l-.09-.28a4.4,4.4,0,0,1,.27-.45.93.93,0,0,0,.19-.46V53a.48.48,0,0,1,.31-.43.91.91,0,0,0,.46-.52l-.09-.23-1.14-1.09,0-.18.19-.19a6.31,6.31,0,0,0,2.57-1.93,5.84,5.84,0,0,0,1-2.48,11.36,11.36,0,0,0,.09-2.87q-.14-1.5-.18-3.09l.14-.32a2.7,2.7,0,0,1,.7-.48,1,1,0,0,0,.57-.62l-.13-.22c-.06-.07-.32-.27-.76-.62s-.93-.72-1.47-1.11-1.08-.76-1.58-1.1-.81-.53-.93-.59a2.08,2.08,0,0,0-.7.57l-.78.87-.73.79c-.22.25-.41.37-.57.37H215.41a.36.36,0,1,0,0,.72h10.7a.41.41,0,0,1,.46.46v6.56a.69.69,0,0,1-.32.61,2.7,2.7,0,0,1-.71.32l-.7.2c-.21.07-.32.16-.32.28a1.2,1.2,0,0,0,.14.59,1.31,1.31,0,0,1,.13.59,2,2,0,0,1-.29.75,9.24,9.24,0,0,1-.71,1.05,8.49,8.49,0,0,1-.82.93c-.27.28-.48.41-.64.41h-15c-.27,0-.42-.1-.43-.2a.32.32,0,0,1,.13-.3,2.22,2.22,0,0,1,.41-.25,3.63,3.63,0,0,1,.39-.16,5.22,5.22,0,0,0,3.53-2.16,8.21,8.21,0,0,0,.89-4.12,16.83,16.83,0,0,0-.11-1.89A14.75,14.75,0,0,1,212,40a.47.47,0,0,1,.16-.34,3.88,3.88,0,0,1,.36-.32c.14-.11.27-.21.39-.32a.65.65,0,0,0,.23-.39,3.79,3.79,0,0,0-.78-.86c-.45-.42-1-.86-1.5-1.3s-1.05-.82-1.5-1.14-.73-.46-.82-.43l-.27.14a2.65,2.65,0,0,0-.57.54c-.23.28-.47.55-.71.82s-.47.53-.7.76-.41.34-.53.34H194.93a.37.37,0,0,0-.37.2.54.54,0,0,0,0,.43.14.14,0,0,0,.1,0h.09a8.93,8.93,0,0,0,1.27.09h1.28l4.39,0,4.39,0a.41.41,0,0,1,.46.46v6.56a.69.69,0,0,1-.32.61,2.82,2.82,0,0,1-.68.32l-.69.23c-.21.07-.32.19-.32.34s.06.16.19.32a4,4,0,0,1,.38.59,5,5,0,0,1,.39.89,3.4,3.4,0,0,1,.18,1.11c0,.52-.08.82-.25.91a2.18,2.18,0,0,1-.93.14,3.12,3.12,0,0,1-1.21-.25c-.41-.17-.82-.35-1.23-.55s-.82-.38-1.23-.54a3.13,3.13,0,0,0-1.2-.26,2.08,2.08,0,0,0-.44.07.31.31,0,0,0-.25.3V61.58a.41.41,0,0,0,.46.46,5.68,5.68,0,0,0,1.32-.16c.42-.11.85-.23,1.27-.37s.85-.26,1.28-.36a5.19,5.19,0,0,1,1.32-.16c.15,0,.28.1.39.32a3.29,3.29,0,0,1,.25.75,5.1,5.1,0,0,1,.11.84c0,.27,0,.47,0,.59a.91.91,0,0,1-.16.52,1.11,1.11,0,0,0-.16.57,7.14,7.14,0,0,0,.46,2.53,7.22,7.22,0,0,1,.46,2.53c0,.27-.25.61-.76,1A20.87,20.87,0,0,1,203.33,72c-.75.49-1.55,1-2.41,1.46s-1.68.94-2.42,1.37-1.36.79-1.87,1.09-.75.5-.75.59.12.24.37.25l.5,0a12.75,12.75,0,0,0,4-.64c1.29-.43,2.58-.91,3.85-1.46s2.56-1.06,3.87-1.55a15.46,15.46,0,0,1,4-.91l.14-.18-.14-.18a7.79,7.79,0,0,1-.86-.23c-.39-.12-.8-.26-1.23-.43a6.75,6.75,0,0,1-1.11-.55c-.32-.2-.48-.4-.48-.61s.15-.41.45-.41Zm-5.24-5a.91.91,0,0,1,.64.25.81.81,0,0,1,.27.62,2.2,2.2,0,0,1-.29.88,9.07,9.07,0,0,1-.73,1.14,6.21,6.21,0,0,1-.92,1,1.36,1.36,0,0,1-.79.41h-3.78a.4.4,0,0,1-.46-.45V65.09a.41.41,0,0,1,.46-.46Zm-3.53-3.71a9.36,9.36,0,0,1,2.16-.25.4.4,0,0,1,.46.45A1.9,1.9,0,0,1,227,62.4a4,4,0,0,1-1.13.93,5.54,5.54,0,0,1-1.44.57,5.83,5.83,0,0,1-1.34.18.71.71,0,0,1-.57-.2,1.34,1.34,0,0,1-.23-.48,1.89,1.89,0,0,1,0-.59c0-.21,0-.41,0-.59a1.15,1.15,0,0,1,.23-.78l.22-.13A20.16,20.16,0,0,0,224.86,60.92ZM210.77,61a.41.41,0,0,1,.46-.46h4.55a.4.4,0,0,0,.45-.45V56.62a.57.57,0,0,1,.16-.39.59.59,0,0,0,.12-.52l-.28-.46V52.38l.14-.32,0,0,.32-.14h5.73a.41.41,0,0,1,.46.46v7.28c0,.4-.34.6-1,.6a19.49,19.49,0,0,1-2.18-.14,19.49,19.49,0,0,0-2.18-.14c-.67,0-1,.2-1,.59v7.93a.4.4,0,0,1-.45.45h-4.87a.4.4,0,0,1-.46-.45Zm-5.6-.91a.4.4,0,0,1-.45-.46V52.34a.4.4,0,0,1,.45-.46H210a.41.41,0,0,1,.46.46v7.28a.4.4,0,0,1-.46.46Zm49.48-24.86a11.33,11.33,0,0,1,1.36.45c.64.25,1.31.52,2,.82l2,.89c.66.29,1.12.51,1.39.66s.18.12.18.28a.3.3,0,0,0,0,.13.14.14,0,0,1-.05.09,11,11,0,0,1-1.18,1.76L259,41.91c-.55.67-1.2,1.44-2,2.3s-1.58,1.75-2.46,2.64-1.81,1.79-2.8,2.69-2,1.71-3,2.46a21.33,21.33,0,0,1-3,1.86,10.18,10.18,0,0,1-2.75,1,.72.72,0,0,1-.35,0c-.16,0-.25-.09-.25-.24a.71.71,0,0,1,.28-.46q2-2.19,3.71-4.35t3.14-4.41a47.1,47.1,0,0,0,2.62-4.74q1.17-2.47,2.18-5.3Zm14.2,18.21.62-.61c.31-.32.66-.66,1-1s.7-.66,1-.92.5-.38.6-.38a2.71,2.71,0,0,1,.81.57c.46.38,1,.81,1.51,1.29L276,53.77l1,.85-.09.27a4.25,4.25,0,0,0-1.32.86,5.76,5.76,0,0,0-.23,2q0,1.19,0,2.1c0,1.12-.09,2.32-.18,3.59a30.6,30.6,0,0,1-.52,3.81,22.32,22.32,0,0,1-1.05,3.59,10.39,10.39,0,0,1-1.78,3A8.39,8.39,0,0,1,269,76a8.52,8.52,0,0,1-3.83.8.41.41,0,0,1-.36-.21,1.49,1.49,0,0,1-.21-.48,3.39,3.39,0,0,1-.09-.57,2.38,2.38,0,0,0-.07-.43A4.86,4.86,0,0,0,263.41,73a19.38,19.38,0,0,0-1.75-1.61,2,2,0,0,0-.28-.23.4.4,0,0,1-.18-.32c0-.12.11-.2.32-.23l.41,0h4.37a.82.82,0,0,0,.75-.39c.17-.26.31-.51.44-.75a12.33,12.33,0,0,0,.84-3q.35-2,.57-4.11c.15-1.44.25-2.85.32-4.22s.09-2.45.09-3.27a.41.41,0,0,0-.46-.46h-6.69a.33.33,0,0,0-.3.12c0,.07-.1.17-.16.29a10.12,10.12,0,0,0-.43,2,13,13,0,0,1-.38,2,31.83,31.83,0,0,1-1.83,5.05,21.06,21.06,0,0,1-5.94,7.58,31.46,31.46,0,0,1-4.44,3c-.24.15-.57.34-1,.57l-1.32.71a11,11,0,0,1-1.32.61,2.87,2.87,0,0,1-1,.25q-.36,0-.27-.18A3,3,0,0,1,244,76q1.77-2.1,3.3-3.66c1-1,1.94-2,2.75-2.92a26.43,26.43,0,0,0,2.17-2.66,13.78,13.78,0,0,0,1.57-3,18.26,18.26,0,0,0,.95-3.87,36.63,36.63,0,0,0,.32-5.3q0-.37-.54-.48a5.6,5.6,0,0,0-1.37-.09c-.54,0-1.14.05-1.8.11s-1.25.1-1.8.11a5.52,5.52,0,0,1-1.36-.09c-.37-.07-.55-.23-.55-.48,0-.09.08-.13.23-.13h20.71Zm-1.77-16.71.22.14a21.46,21.46,0,0,0,3.35,3.76,32.17,32.17,0,0,0,4,3A38.12,38.12,0,0,0,279.14,46q2.33,1.05,4.64,1.91l.14.18-.14.19a9.16,9.16,0,0,0-1.54,1,8,8,0,0,0-1.14,1.19,9.77,9.77,0,0,0-.91,1.36c-.27.49-.58,1-.91,1.6a1,1,0,0,0-.16.2.24.24,0,0,1-.21.12.47.47,0,0,1-.32-.14,32.46,32.46,0,0,1-3.8-3.33,37,37,0,0,1-3.5-4.09,29.14,29.14,0,0,1-2.78-4.58,17.74,17.74,0,0,1-1.57-4.8ZM301.9,52.88v-.66c0-.22.16-.34.46-.34a2.48,2.48,0,0,1,1.25.39,6.61,6.61,0,0,1,2.23,2.23,2.48,2.48,0,0,1,.39,1.25,1.68,1.68,0,0,1-.66,1.39,2.26,2.26,0,0,1-1.44.52,1.63,1.63,0,0,1-1.31-.52,3.16,3.16,0,0,1-.67-1.27,6.83,6.83,0,0,1-.22-1.57C301.91,53.75,301.9,53.28,301.9,52.88Zm9-6.73c.42-.46.82-.92,1.2-1.39a8.13,8.13,0,0,0,1-1.53l.28-.13.27.09c.18.18.44.42.77.72l1.05.94c.37.32.7.63,1,.93s.5.52.6.64l-.1.18-.31.14h-12a.23.23,0,0,1,0-.46h6Zm-5.24,23-.5-.23a3.3,3.3,0,0,1,.73-.06q.68,0,1.71,0h2.21q1.19,0,2.25,0l1.87,0h1l.09,0a.15.15,0,0,0,.09,0l-.55.23ZM331,43.69a4.26,4.26,0,0,0-1.14-.21,8.47,8.47,0,0,1-1.14-.11q-1-.13-2-.3c-.65-.1-1.31-.22-2-.34a38.8,38.8,0,0,1-4.5-1.09A32.87,32.87,0,0,1,315.88,40l-.55-.28-.66-.36c-.22-.12-.45-.23-.66-.32a1.42,1.42,0,0,0-.5-.14c-.15,0-.22,0-.22.14a2.7,2.7,0,0,0,.59,1.32,17,17,0,0,0,1.39,1.77q.8.91,1.59,1.71c.53.53.93.9,1.2,1.12a9.45,9.45,0,0,0,.87.61l1.09.69a8.79,8.79,0,0,1,1,.7,3.42,3.42,0,0,1,.69.68.93.93,0,0,1-.28.6,5.85,5.85,0,0,1-.61.61,8.88,8.88,0,0,1-.7.55,3.29,3.29,0,0,0-.55.43H301a3.08,3.08,0,0,1-.66-.14c-.32-.09-.65-.2-1-.32a4.88,4.88,0,0,1-.89-.41c-.26-.15-.39-.28-.39-.41s.22-.29.64-.61,1-.68,1.6-1.09,1.34-.85,2.11-1.32l2.23-1.37c.72-.44,1.35-.83,1.89-1.18s.93-.6,1.14-.75a14.58,14.58,0,0,0,1.57-1.44c.47-.5.95-1,1.44-1.46A10.76,10.76,0,0,1,312.31,38a7.56,7.56,0,0,1,2-.93l.13-.23-.13-.18a15.92,15.92,0,0,1-2.8-.69c-.9-.3-1.82-.57-2.76-.82l-.45-.13-.66-.18L307,34.7a2,2,0,0,0-.39-.07.24.24,0,0,0-.23.11.57.57,0,0,1-.13.21,55.52,55.52,0,0,1-4.55,6.46,32.59,32.59,0,0,1-5.79,5.65,22.45,22.45,0,0,1-2.2,1.43,9.26,9.26,0,0,0-2.07,1.57.86.86,0,0,0-.16.18.3.3,0,0,0-.07.19c0,.15.1.22.32.22a2,2,0,0,0,.84-.22l.95-.46c.32-.15.63-.28.92-.39a.9.9,0,0,1,.7,0l.14.32V61.17c0,.27.16.42.5.46a9.89,9.89,0,0,0,1.11,0,8.15,8.15,0,0,1,1.12,0c.33,0,.5.2.5.5V77a.4.4,0,0,0,.45.46A7.8,7.8,0,0,0,302,77a9.52,9.52,0,0,0,2.54-1.8.53.53,0,0,1,.37-.19c1.79,0,3.57,0,5.33-.16s3.53-.16,5.32-.16c.4,0,.61.13.64.39a7.3,7.3,0,0,1,.05.84,2.57,2.57,0,0,0,.13.85c.09.25.38.39.87.39.18,0,.54,0,1.09-.12a14.26,14.26,0,0,0,1.66-.32,8.82,8.82,0,0,0,1.5-.48q.66-.27.66-.63V64.77a.73.73,0,0,1,.25-.48c.17-.17.24-.31.21-.43l-.09-.1a.16.16,0,0,1,0-.13l-.91-.59c-.42-.28-.86-.59-1.3-.94a10.67,10.67,0,0,1-1.13-1,1.41,1.41,0,0,1-.48-.82.44.44,0,0,1,.25-.41,1,1,0,0,1,.48-.14.75.75,0,0,1,.52.16,1.82,1.82,0,0,1,.27.35,1.55,1.55,0,0,0,.3.33.77.77,0,0,0,.54.16,7.52,7.52,0,0,0,1.05-.09,11.37,11.37,0,0,0,1.48-.29,9,9,0,0,0,1.34-.48c.4-.18.6-.41.6-.68V56.73c0-.59,0-1.21,0-1.84s0-1.23,0-1.78,0-1,.05-1.36a2.12,2.12,0,0,1,.07-.6,5.68,5.68,0,0,1,1.07-.91,3.23,3.23,0,0,0,1-1c.3-.48.57-1,.82-1.39l.72-1.3A12,12,0,0,1,330,45.3a6.65,6.65,0,0,1,1.2-1.16l.09-.18A.82.82,0,0,0,331,43.69Zm-30.82,7.46a.4.4,0,0,1,.45-.45h6.7a.4.4,0,0,1,.45.45v7.29a.4.4,0,0,1-.45.45h-6.7a.4.4,0,0,1-.45-.45ZM316.25,73.6a.4.4,0,0,1-.46.45h-11.2l-.32-.13,0,0-.14-.32c0-.6,0-1.23,0-1.86a12.87,12.87,0,0,1,0-1.87,3.22,3.22,0,0,1,.16-.46,1.38,1.38,0,0,0,.11-.36.91.91,0,0,0-.13-.52.67.67,0,0,1-.14-.39V64.17a.4.4,0,0,1,.45-.45h11.25a.4.4,0,0,1,.46.45Zm1.5-12.89-2,2-.32.14h-11a4.78,4.78,0,0,1-1.12-.18,9.78,9.78,0,0,1-1.41-.48,5.22,5.22,0,0,1-1.23-.71,1.14,1.14,0,0,1-.52-.91.79.79,0,0,1,.18-.5.56.56,0,0,1,.45-.23h16.67q.31,0,.36.42C317.82,60.49,317.81,60.66,317.75,60.71Zm2.41-2.27a.4.4,0,0,1-.45.45h-4.79a.28.28,0,0,1-.32-.32c0-.09.24-.38.71-.86s1-1,1.57-1.52,1.12-1,1.64-1.46a2.9,2.9,0,0,1,1-.66c.12,0,.26.11.43.34a1.11,1.11,0,0,1,.25.52Zm0-5.94a.61.61,0,0,1-.55.34,3.3,3.3,0,0,1-1.05-.16c-.33-.11-.67-.23-1-.37l-1-.38a2.52,2.52,0,0,0-.89-.18c-.24,0-.44.37-.59,1.11s-.3,1.57-.46,2.46-.32,1.72-.52,2.46-.45,1.11-.75,1.11a.76.76,0,0,1-.48-.2.6.6,0,0,1-.25-.43V51c0-.24.1-.38.3-.41a2.4,2.4,0,0,1,.7,0c.28,0,.54.11.8.18a2.21,2.21,0,0,0,.61.12.71.71,0,0,0,.41-.12.78.78,0,0,1,.37-.11h4.1c.12,0,.22.11.29.34a2.19,2.19,0,0,1,.12.73A1.67,1.67,0,0,1,320.12,52.5Z"/><path class="cls-2" d="M484,25h.66l.2.07c.39.09.5.2.56.59a3.87,3.87,0,0,1,0,.48c0,2.21,0,4.43,0,6.65V81.75c0,2.52,0,5,0,7.57,0,.8-.19,1-1,1l-4.77,0c-3.67,0-7.34,0-11,0a1.74,1.74,0,0,1-1.48-.72q-7.24-9.21-14.5-18.41L441.07,56.47c-.15-.18-.3-.36-.46-.53a.27.27,0,0,0-.22-.07.29.29,0,0,0-.11.21,2.17,2.17,0,0,0,0,.36V89.79c0,.14,0,.28,0,.41-.61.09-19.28.06-19.54,0V25.12l.75,0,18,0a1.66,1.66,0,0,1,1.42.68q9.43,12,18.89,24.08l5.16,6.57a7.16,7.16,0,0,0,.7.76c.13.13.25.08.27-.1s0-.24,0-.37V25.13c.37,0,.69,0,1,0l16.64,0A3.34,3.34,0,0,0,484,25Z"/><path class="cls-3" d="M355.11,25.09l.33,0q16.69,0,33.38,0a32.52,32.52,0,0,1,8.94,1.17,18.75,18.75,0,0,1,5.22,2.3,14.47,14.47,0,0,1,6.24,8.84,17.58,17.58,0,0,1,.5,5.64,13.39,13.39,0,0,1-3.89,8.49A16.84,16.84,0,0,1,400.94,55l-1,.45-.26.17.41.15c1.14.38,2.3.75,3.4,1.24A17.92,17.92,0,0,1,409,60.72a14.36,14.36,0,0,1,3.85,7,18.6,18.6,0,0,1-.05,9.11,15.29,15.29,0,0,1-5.94,8.57A23.61,23.61,0,0,1,399.48,89a30.89,30.89,0,0,1-6.05,1.13c-1.47.14-2.95.19-4.43.19H356.07c-.32,0-.64,0-1,0Zm20.05,40c0,.32,0,.59,0,.86,0,2.87,0,5.74,0,8.61,0,.68.17.86.85.86l9.72,0a15.84,15.84,0,0,0,4.59-.67,4.11,4.11,0,0,0,3-3.26,6.16,6.16,0,0,0,0-2.53,3.66,3.66,0,0,0-2.17-2.8l-.51-.22a12.27,12.27,0,0,0-4.19-.8l-5.54,0-5.28,0ZM380.52,40v0h-4.44c-.12,0-.24,0-.37,0-.42,0-.57.18-.58.6,0,.13,0,.27,0,.4v8.76a2.81,2.81,0,0,0,0,.29.53.53,0,0,0,.51.54,2.23,2.23,0,0,0,.37,0h1.25c2.11,0,4.21,0,6.32-.15a16.25,16.25,0,0,0,2.3-.29A4.67,4.67,0,0,0,389.55,47a5,5,0,0,0-3.33-6.62,7.8,7.8,0,0,0-2-.26Z"/><path class="cls-4" d="M495.66,25a3.59,3.59,0,0,0,.46.05l16.67,0h.61l0,.09L494,44.82c0-.36,0-.64,0-.92V37.33c0-3.74,0-7.47,0-11.2a3.2,3.2,0,0,1,0-.44.61.61,0,0,1,.52-.59l.2-.08Z"/><path class="cls-5" d="M513.83,32.91V90.29H502.66l-7.54,0a4.35,4.35,0,0,1-.51,0,.59.59,0,0,1-.63-.6,5,5,0,0,1,0-.55q0-9.86,0-19.7,0-6.8,0-13.6c0-.76,0-1.53,0-2.29a2,2,0,0,1,.61-1.49l7.79-7.74,5-5,5.91-5.9C513.41,33.29,513.59,33.13,513.83,32.91Z"/><path class="cls-6" d="M525.38,86.62a3.56,3.56,0,0,1-7.12,0,3.56,3.56,0,1,1,7.12,0Zm-3.62,3.13a3.13,3.13,0,1,0-3-3.28A3.06,3.06,0,0,0,521.76,89.75Z"/><path class="cls-7" d="M521.22,86.86a.74.74,0,0,0-.21.54c0,.19,0,.37,0,.56a.77.77,0,0,1-.49.74v-4c.46,0,.91,0,1.36,0a5.09,5.09,0,0,1,.55,0,1,1,0,0,1,.78,1.34c-.15.38-.3.77-.79.88a2.61,2.61,0,0,0,.13.28l.67,1.11c.06.1.17.2,0,.35a1.17,1.17,0,0,1-.65-.47c-.12-.2-.25-.4-.36-.6A1.68,1.68,0,0,0,521.22,86.86Zm.47-1.83h-.11c-.35,0-.53.12-.57.45-.06.55,0,.92.36,1a.25.25,0,0,0,.14,0,8.16,8.16,0,0,0,.88-.1.6.6,0,0,0,.48-.69.58.58,0,0,0-.49-.6C522.15,85.08,521.92,85.06,521.69,85Z"/></svg>