<svg id="圖層_1" data-name="圖層 1" xmlns="http://www.w3.org/2000/svg" xmlns:xlink="http://www.w3.org/1999/xlink" viewBox="0 0 250 250"><defs><style>.cls-1{fill:#fff;}.cls-2{fill:url(#未命名漸層_157);}.cls-3{fill:url(#未命名漸層_157-2);}.cls-4{fill:url(#未命名漸層_157-3);}.cls-5{stroke:#fff;stroke-miterlimit:10;stroke-width:2px;fill:url(#未命名漸層_157-4);}</style><radialGradient id="未命名漸層_157" cx="147.89" cy="78.47" r="22.1" gradientUnits="userSpaceOnUse"><stop offset="0" stop-color="#b21848"/><stop offset="0.03" stop-color="#ae1847"/><stop offset="0.48" stop-color="#721434"/><stop offset="0.81" stop-color="#4c1128"/><stop offset="0.98" stop-color="#3e1023"/></radialGradient><radialGradient id="未命名漸層_157-2" cx="120.65" cy="106.24" r="40.91" xlink:href="#未命名漸層_157"/><radialGradient id="未命名漸層_157-3" cx="138.22" cy="88.18" r="13.48" xlink:href="#未命名漸層_157"/><radialGradient id="未命名漸層_157-4" cx="97.32" cy="183.6" r="58.34" gradientTransform="translate(26.95) scale(1.01 1)" xlink:href="#未命名漸層_157"/></defs><circle class="cls-1" cx="125" cy="99.94" r="80"/><path class="cls-2" d="M127,56.64c2,.47,4.07.87,6.08,1.41a50.5,50.5,0,0,1,23.86,14.39,51.42,51.42,0,0,1,12.45,22.44c.34,1.27.62,2.56.93,3.84v.35l-6.79,1.22c-4.78-20.4-17.36-32.62-38-36.82.29-2.2.6-4.51.9-6.83Z"/><path class="cls-3" d="M143.67,147.16a36.86,36.86,0,0,1-13.74-3.24c-17.62-7.66-31.27-19.9-41.41-36.12a61.8,61.8,0,0,1-8.12-19A20,20,0,0,1,80.29,79a9.55,9.55,0,0,1,2.53-4.38c2.35-2.37,4.69-4.73,7.08-7.05,2-1.95,4.32-2.93,7-1.78a9.66,9.66,0,0,1,2.82,1.92c3.46,3.37,6.85,6.81,10.26,10.24,1.63,1.65,2.78,3.51,2.43,6A7.67,7.67,0,0,1,110,88.24c-2,2-4,4-6,6-1.07,1.07-1.08,1.31-.45,2.71,2.28,5.11,5.78,9.35,9.53,13.4a61.73,61.73,0,0,0,12.43,10.54c1.59,1,3.31,1.79,5,2.69a1.49,1.49,0,0,0,1.95-.47c2.08-2.1,4.15-4.19,6.24-6.26a7.54,7.54,0,0,1,4.3-2.42,6.18,6.18,0,0,1,4.77,1.4A16.41,16.41,0,0,1,149,117l10,10a7.82,7.82,0,0,1,2.36,3.86,5.67,5.67,0,0,1-1.37,5.26c-2.63,2.83-5.32,5.6-8.12,8.25C149.7,146.46,146.87,147.15,143.67,147.16Z"/><path class="cls-4" d="M124.57,81.62l1-6.76c11.27,1,23.94,10.75,26.35,25.46l-6.81,1.17Q141.25,85,124.57,81.62Z"/><rect class="cls-5" x="45" y="161.2" width="160" height="44.81" rx="22.4"/><path class="cls-1" d="M100.74,177.55H94.31v-4.74h18.62v4.74h-6.47v19.07h-5.72Z"/><path class="cls-1" d="M118.69,187.53c0-5.92,4.22-9.57,8.64-9.57,5.25,0,7.81,3.81,7.81,8.8a10.15,10.15,0,0,1-.26,2.43H124.19c.52,2.5,2.24,3.52,4.55,3.52a7.41,7.41,0,0,0,3.84-1.15l1.88,3.42a11.69,11.69,0,0,1-6.52,2.08C122.72,197.06,118.69,193.54,118.69,187.53Zm11.62-2.05c0-1.82-.81-3.17-2.89-3.17-1.56,0-2.94,1-3.32,3.17Z"/><path class="cls-1" d="M145.18,190.7V171.05h5.67v19.87c0,1.18.57,1.54,1,1.54a2.44,2.44,0,0,0,.64-.07l.67,4.19a7.3,7.3,0,0,1-2.81.48C146.47,197.06,145.18,194.5,145.18,190.7Z"/></svg>