<svg id="圖層_1" data-name="圖層 1" xmlns="http://www.w3.org/2000/svg" xmlns:xlink="http://www.w3.org/1999/xlink" viewBox="0 0 250 250"><defs><style>.cls-1{fill:#fff;}.cls-2{fill:url(#未命名漸層_157);}.cls-3{fill:url(#未命名漸層_157-2);}.cls-4{stroke:#fff;stroke-miterlimit:10;stroke-width:2px;fill:url(#未命名漸層_157-3);}</style><radialGradient id="未命名漸層_157" cx="125" cy="111.26" r="37.67" gradientUnits="userSpaceOnUse"><stop offset="0" stop-color="#b21848"/><stop offset="0.03" stop-color="#ae1847"/><stop offset="0.48" stop-color="#721434"/><stop offset="0.81" stop-color="#4c1128"/><stop offset="0.98" stop-color="#3e1023"/></radialGradient><radialGradient id="未命名漸層_157-2" cx="125.01" cy="86.34" r="35.7" xlink:href="#未命名漸層_157"/><radialGradient id="未命名漸層_157-3" cx="41.4" cy="183.6" r="58.34" gradientTransform="translate(83.29) scale(1.01 1)" xlink:href="#未命名漸層_157"/></defs><circle class="cls-1" cx="125" cy="99.94" r="80"/><path class="cls-2" d="M172.1,123.89c-.24.91-.43,1.83-.73,2.72a13.77,13.77,0,0,1-13.45,9.53q-32.92.06-65.86,0a13.76,13.76,0,0,1-13.83-11,13.6,13.6,0,0,1-.31-2.92q0-17.57,0-35.13c0-.18,0-.36,0-.67.38.22.69.39,1,.58q21.3,13,42.58,26a6,6,0,0,0,6.87,0q21.39-13.09,42.84-26.11c.29-.18.58-.33.88-.5Z"/><path class="cls-3" d="M125,66.74h32.65a13.59,13.59,0,0,1,12,6.33,27.44,27.44,0,0,1,1.7,3.64c.33.7.08,1.06-.56,1.45Q154,88.41,137.19,98.7c-3.81,2.33-7.64,4.65-11.44,7a1.13,1.13,0,0,1-1.39,0Q101.74,91.89,79.09,78.11a1,1,0,0,1-.53-1.31c1.71-6.07,7.13-10,13.79-10.06Z"/><rect class="cls-4" x="45" y="161.2" width="160" height="44.81" rx="22.4"/><path class="cls-1" d="M80.78,172.81H87l3.78,10.27c.48,1.38.86,2.88,1.31,4.35h.16c.48-1.47.86-3,1.31-4.35l3.65-10.27h6.21v23.81H98.15v-8.16a78.69,78.69,0,0,1,.74-8.26h-.13l-2,5.7-3.19,8.7H90.44l-3.23-8.7-1.92-5.7h-.13a78.69,78.69,0,0,1,.74,8.26v8.16H80.78Z"/><path class="cls-1" d="M114,191.53c0-3.84,3-5.92,10.11-6.69-.12-1.47-.89-2.34-2.75-2.34a10,10,0,0,0-4.77,1.61l-2-3.75a15.14,15.14,0,0,1,7.84-2.4c4.7,0,7.36,2.62,7.36,8.32v10.34h-4.64l-.42-1.83h-.12a7.76,7.76,0,0,1-5.22,2.27A5.25,5.25,0,0,1,114,191.53Zm10.11-.32V188.3c-3.55.48-4.7,1.5-4.7,2.78,0,1.06.77,1.57,1.95,1.57A3.6,3.6,0,0,0,124.1,191.21Z"/><path class="cls-1" d="M140.17,173a3.26,3.26,0,1,1,3.26,2.91A3,3,0,0,1,140.17,173Zm.41,5.44h5.67v18.21h-5.67Z"/><path class="cls-1" d="M157.26,190.7V171.05h5.66v19.87c0,1.18.58,1.54,1,1.54a2.44,2.44,0,0,0,.64-.07l.67,4.19a7.3,7.3,0,0,1-2.81.48C158.54,197.06,157.26,194.5,157.26,190.7Z"/></svg>